<svg xmlns="http://www.w3.org/2000/svg" xmlns:dct="http://purl.org/dc/terms/" dct:license="https://github.com/MovGP0/TIARA/blob/main/LICENSE" width="32" height="32" viewBox="0 0 32 32" role="img">
  <title>EEPROM/ROM</title>
  <!-- Original TIARA artwork. SPDX-License-Identifier: MIT -->
  <g fill="none" stroke="#000000" stroke-width="1.6" stroke-linecap="round" stroke-linejoin="round">
    <rect x="7" y="5" width="18" height="22" rx="2"/><path d="M3 10H7M3 16H7M3 22H7M25 10H29M25 16H29M25 22H29" stroke-width="1.6"/><g transform="translate(9.5 13.5625) scale(0.8125)"><g transform="translate(0 0)"><path d="M0 6V0H3L4 1V2L3 3H0M2 3L4 6" stroke-width="1.15"/></g><g transform="translate(6 0)"><path d="M1 0H3L4 1V5L3 6H1L0 5V1Z" stroke-width="1.15"/></g><g transform="translate(12 0)"><path d="M0 6V0L2 3 4 0V6" stroke-width="1.15"/></g></g>
  </g>
</svg>
