#VRML V2.0 utf8
WorldInfo {
title "enclosure12704_top"
info [ "[Parameters]"
"origin= file converted to X3D by DesignSoft - www.designsoftware.com"
"modelsize=1.223;0.713;0.312"
"trianglecount=1368"
"originalfile=enclosure12704_top.step"
] }
Background {
skyColor [
1.00 1.00 1.00
]
}
Transform {
scale 0.039370 0.039370 0.039370
children [
Shape {
appearance Appearance {
material Material {
ambientIntensity 0.300
shininess 1.000
diffuseColor 0.479 0.485 0.485
transparency 0.000
specularColor 0.320 0.324 0.324
emissiveColor 0.000 0.000 0.000
}
}
geometry IndexedFaceSet {
ccw TRUE
normalPerVertex TRUE
convex TRUE
creaseAngle 0.500
solid FALSE
coord Coordinate {
point [
5.05616 7.92912 -10.8736 ,5.44656 7.92912 -11.2815 ,5.34532 7.92912 -11.3682 ,4.95926 7.92912 -10.9531 ,5.24345 7.92912 10.2965 ,5.755 7.92912 -10.5494 ,5.24345 7.92912 -10.4215 ,5.53609 7.92912 -11.1818 ,5.13568 7.92912 -10.7767 ,5.6122 7.92912 -11.0707 ,5.755 7.92912 10.4244 ,5.23116 7.92912 10.4213 ,5.67336 7.92912 -10.9499 ,5.19477 7.92912 -10.6662 ,4.73189 7.92912 11.4475 ,4.604 7.92912 10.936 ,-4.73189 7.92912 11.4475 ,4.72875 7.92912 10.9237 ,5.71822 7.92912 -10.8212 ,4.87048 7.92912 11.4381 ,5.74571 7.92912 -10.687 ,4.84871 7.92912 10.8873 ,5.23116 7.92912 -10.5462 ,5.745 7.92912 10.5671 ,5.19477 7.92912 10.5413 ,-5.05616 7.92912 -10.8736 ,-5.3715 7.92912 -11.3479 ,-5.49834 7.92912 -11.2271 ,5.00312 7.92912 11.4109 ,-4.95926 7.92912 -10.9531 ,5.71637 7.92912 10.7029 ,-5.24345 7.92912 10.2965 ,-5.24345 7.92912 -10.4215 ,-5.755 7.92912 -10.5494 ,-5.755 7.92912 10.4244 ,-5.22691 7.92912 -11.4447 ,5.12846 7.92912 11.3676 ,4.95926 7.92912 10.8282 ,-5.13568 7.92912 -10.7767 ,-5.60335 7.92912 -11.0854 ,-5.68294 7.92912 -10.9265 ,5.67102 7.92912 10.8304 ,-5.23116 7.92912 10.4213 ,-5.745 7.92912 10.5671 ,5.13568 7.92912 10.6518 ,-5.19477 7.92912 -10.6662 ,-5.73036 7.92912 -10.7726 ,5.24544 7.92912 11.3093 ,5.61065 7.92912 10.9484 ,-5.19477 7.92912 10.5413 ,-5.71637 7.92912 10.7029 ,-4.84871 7.92912 -11.0122 ,-5.67102 7.92912 10.8304 ,-4.9024 7.92912 -11.5582 ,-5.06899 7.92912 -11.5153 ,5.3531 7.92912 11.2374 ,5.05616 7.92912 10.7487 ,-5.13568 7.92912 10.6518 ,-5.61065 7.92912 10.9484 ,-5.23116 7.92912 -10.5462 ,5.53673 7.92912 11.0561 ,-5.74879 7.92912 -10.6619 ,5.45051 7.92912 11.1527 ,-5.53673 7.92912 11.0561 ,-4.72875 7.92912 -11.0486 ,-4.73189 7.92912 -11.5725 ,-5.05616 7.92912 10.7487 ,-5.45051 7.92912 11.1527 ,-4.604 7.92912 -11.0609 ,4.73189 7.92912 -11.5725 ,-5.3531 7.92912 11.2374 ,-4.95926 7.92912 10.8282 ,4.604 7.92912 -11.0609 ,-5.24544 7.92912 11.3093 ,4.72875 7.92912 -11.0486 ,4.86201 7.92912 -11.5642 ,-5.12846 7.92912 11.3676 ,-4.84871 7.92912 10.8873 ,4.84871 7.92912 -11.0122 ,5.11528 7.92912 -11.4979 ,4.99051 7.92912 -11.5392 ,-5.00312 7.92912 11.4109 ,-4.87048 7.92912 11.4381 ,-4.72875 7.92912 10.9237 ,5.23424 7.92912 -11.4407 ,-4.604 7.92912 10.936
] }
coordIndex [
0 1 2 -1 0 2 3 -1 4 5 6 -1 7 1 0 -1 8 7 0 -1 9 7 8 -1 10 5 4 -1 10 4 11 -1 12 9 8 -1 12 8 13 -1 14 15 16 -1 14 17 15 -1 18 12 13 -1 19 17 14 -1 20 18 13 -1 19 21 17 -1 20 13 22 -1 23 10 11 -1 5 22 6 -1 5 20 22 -1 23 11 24 -1 25 26 27 -1 28 21 19 -1 29 26 25 -1 30 23 24 -1 31 32 33 -1 31 33 34 -1 29 35 26 -1 36 21 28 -1 36 37 21 -1 38 27 39 -1 38 39 40 -1 41 30 24 -1 42 34 43 -1 38 25 27 -1 41 24 44 -1 42 31 34 -1 45 40 46 -1 47 37 36 -1 45 38 40 -1 48 41 44 -1 49 43 50 -1 51 35 29 -1 49 50 52 -1 51 53 54 -1 51 54 35 -1 55 37 47 -1 49 42 43 -1 55 56 37 -1 57 52 58 -1 59 45 46 -1 60 48 44 -1 57 49 52 -1 59 46 61 -1 60 44 56 -1 59 61 33 -1 62 56 55 -1 62 60 56 -1 63 57 58 -1 64 53 51 -1 64 65 53 -1 32 59 33 -1 66 57 63 -1 67 66 63 -1 68 65 64 -1 69 65 68 -1 70 71 66 -1 70 66 67 -1 72 69 68 -1 73 71 70 -1 74 75 69 -1 76 71 73 -1 74 69 72 -1 76 77 71 -1 78 79 80 -1 78 80 75 -1 78 75 74 -1 81 77 76 -1 82 77 81 -1 82 83 77 -1 3 2 84 -1 3 84 79 -1 16 83 82 -1 16 85 83 -1 3 79 78 -1 15 85 16 -1
]
}
}
Shape {
appearance Appearance {
material Material {
ambientIntensity 0.300
shininess 1.000
diffuseColor 0.479 0.485 0.485
transparency 0.000
specularColor 0.320 0.324 0.324
emissiveColor 0.000 0.000 0.000
}
}
geometry IndexedFaceSet {
ccw TRUE
normalPerVertex TRUE
convex TRUE
creaseAngle 0.500
solid FALSE
coord Coordinate {
point [
2.50568 6.65023 -15.3398 ,7.41931 6.65023 -14.355 ,4.73189 7.92912 -11.5725 ,-2.50568 6.65023 -15.3398 ,-4.73189 7.92912 -11.5725 ,-7.41931 6.65023 -14.355
] }
coordIndex [
0 1 2 -1 3 0 2 -1 4 3 2 -1 5 3 4 -1
]
}
}
Shape {
appearance Appearance {
material Material {
ambientIntensity 0.300
shininess 1.000
diffuseColor 0.479 0.485 0.485
transparency 0.000
specularColor 0.320 0.324 0.324
emissiveColor 0.000 0.000 0.000
}
}
geometry IndexedFaceSet {
ccw TRUE
normalPerVertex TRUE
convex TRUE
creaseAngle 0.500
solid FALSE
coord Coordinate {
point [
-7.41931 6.65023 -14.355 ,-4.73189 7.92912 -11.5725 ,-4.9024 7.92912 -11.5582 ,-7.72404 6.65023 -14.2312 ,-5.06899 7.92912 -11.5153 ,-8.00194 6.65023 -14.0553 ,-5.22691 7.92912 -11.4447 ,-8.24418 6.65023 -13.8328 ,-5.3715 7.92912 -11.3479 ,-5.49834 7.92912 -11.2271 ,-8.44307 6.65023 -13.5708 ,-5.60335 7.92912 -11.0854 ,-8.59229 6.65023 -13.2776 ,-5.68294 7.92912 -10.9265 ,-8.68708 6.65023 -12.9627 ,-5.73036 7.92912 -10.7726 ,-5.74879 7.92912 -10.6619 ,-8.72444 6.65023 -12.6359 ,-5.755 7.92912 -10.5494
] }
coordIndex [
0 1 2 -1 3 2 4 -1 3 0 2 -1 5 4 6 -1 5 3 4 -1 7 6 8 -1 7 8 9 -1 7 5 6 -1 10 9 11 -1 10 7 9 -1 12 11 13 -1 12 10 11 -1 14 13 15 -1 14 15 16 -1 14 12 13 -1 17 16 18 -1 17 14 16 -1
]
}
}
Shape {
appearance Appearance {
material Material {
ambientIntensity 0.300
shininess 1.000
diffuseColor 0.479 0.485 0.485
transparency 0.000
specularColor 0.320 0.324 0.324
emissiveColor 0.000 0.000 0.000
}
}
geometry IndexedFaceSet {
ccw TRUE
normalPerVertex TRUE
convex TRUE
creaseAngle 0.500
solid FALSE
coord Coordinate {
point [
-8.86457 6.65023 -3.90991 ,-8.72444 6.65023 -12.6359 ,-5.755 7.92912 -10.5494 ,-5.755 7.92912 10.4244 ,-8.85576 6.65023 4.81719 ,-8.69802 6.65023 13.5429
] }
coordIndex [
0 1 2 -1 3 4 0 -1 3 0 2 -1 5 4 3 -1
]
}
}
Shape {
appearance Appearance {
material Material {
ambientIntensity 0.300
shininess 1.000
diffuseColor 0.479 0.485 0.485
transparency 0.000
specularColor 0.320 0.324 0.324
emissiveColor 0.000 0.000 0.000
}
}
geometry IndexedFaceSet {
ccw TRUE
normalPerVertex TRUE
convex TRUE
creaseAngle 0.500
solid FALSE
coord Coordinate {
point [
-8.69802 6.65023 13.5429 ,-5.755 7.92912 10.4244 ,-5.745 7.92912 10.5671 ,-8.65435 6.65023 13.8958 ,-5.71637 7.92912 10.7029 ,-8.54379 6.65023 14.2338 ,-5.67102 7.92912 10.8304 ,-5.61065 7.92912 10.9484 ,-8.37045 6.65023 14.5443 ,-5.53673 7.92912 11.0561 ,-8.14077 6.65023 14.8157 ,-5.45051 7.92912 11.1527 ,-5.3531 7.92912 11.2374 ,-7.86327 6.65023 15.0381 ,-5.24544 7.92912 11.3093 ,-7.54827 6.65023 15.2031 ,-5.12846 7.92912 11.3676 ,-5.00312 7.92912 11.4109 ,-7.20747 6.65023 15.3047 ,-4.87048 7.92912 11.4381 ,-6.85352 6.65023 15.3389 ,-4.73189 7.92912 11.4475
] }
coordIndex [
0 1 2 -1 3 2 4 -1 3 0 2 -1 5 4 6 -1 5 6 7 -1 5 3 4 -1 8 7 9 -1 8 5 7 -1 10 9 11 -1 10 11 12 -1 10 8 9 -1 13 12 14 -1 13 10 12 -1 15 14 16 -1 15 16 17 -1 15 13 14 -1 18 17 19 -1 18 15 17 -1 20 19 21 -1 20 18 19 -1
]
}
}
Shape {
appearance Appearance {
material Material {
ambientIntensity 0.300
shininess 1.000
diffuseColor 0.479 0.485 0.485
transparency 0.000
specularColor 0.320 0.324 0.324
emissiveColor 0.000 0.000 0.000
}
}
geometry IndexedFaceSet {
ccw TRUE
normalPerVertex TRUE
convex TRUE
creaseAngle 0.500
solid FALSE
coord Coordinate {
point [
6.85352 6.65023 15.3389 ,-4.73189 7.92912 11.4475 ,-6.85352 6.65023 15.3389 ,4.73189 7.92912 11.4475
] }
coordIndex [
0 1 2 -1 3 1 0 -1
]
}
}
Shape {
appearance Appearance {
material Material {
ambientIntensity 0.300
shininess 1.000
diffuseColor 0.479 0.485 0.485
transparency 0.000
specularColor 0.320 0.324 0.324
emissiveColor 0.000 0.000 0.000
}
}
geometry IndexedFaceSet {
ccw TRUE
normalPerVertex TRUE
convex TRUE
creaseAngle 0.500
solid FALSE
coord Coordinate {
point [
6.85352 6.65023 15.3389 ,4.73189 7.92912 11.4475 ,4.87048 7.92912 11.4381 ,7.20747 6.65023 15.3047 ,5.00312 7.92912 11.4109 ,7.54827 6.65023 15.2031 ,5.12846 7.92912 11.3676 ,5.24544 7.92912 11.3093 ,7.86327 6.65023 15.0381 ,5.3531 7.92912 11.2374 ,8.14077 6.65023 14.8157 ,5.45051 7.92912 11.1527 ,5.53673 7.92912 11.0561 ,8.37045 6.65023 14.5443 ,5.61065 7.92912 10.9484 ,8.54379 6.65023 14.2338 ,5.67102 7.92912 10.8304 ,5.71637 7.92912 10.7029 ,8.65435 6.65023 13.8958 ,5.745 7.92912 10.5671 ,8.69802 6.65023 13.5429 ,5.755 7.92912 10.4244
] }
coordIndex [
0 1 2 -1 3 2 4 -1 3 0 2 -1 5 4 6 -1 5 6 7 -1 5 3 4 -1 8 7 9 -1 8 5 7 -1 10 9 11 -1 10 11 12 -1 10 8 9 -1 13 12 14 -1 13 10 12 -1 15 14 16 -1 15 16 17 -1 15 13 14 -1 18 17 19 -1 18 15 17 -1 20 19 21 -1 20 18 19 -1
]
}
}
Shape {
appearance Appearance {
material Material {
ambientIntensity 0.300
shininess 1.000
diffuseColor 0.479 0.485 0.485
transparency 0.000
specularColor 0.320 0.324 0.324
emissiveColor 0.000 0.000 0.000
}
}
geometry IndexedFaceSet {
ccw TRUE
normalPerVertex TRUE
convex TRUE
creaseAngle 0.500
solid FALSE
coord Coordinate {
point [
8.85576 6.65023 4.81719 ,8.69802 6.65023 13.5429 ,5.755 7.92912 10.4244 ,8.86457 6.65023 -3.90991 ,5.755 7.92912 -10.5494 ,8.72444 6.65023 -12.6359
] }
coordIndex [
0 1 2 -1 3 0 2 -1 4 3 2 -1 5 3 4 -1
]
}
}
Shape {
appearance Appearance {
material Material {
ambientIntensity 0.300
shininess 1.000
diffuseColor 0.479 0.485 0.485
transparency 0.000
specularColor 0.320 0.324 0.324
emissiveColor 0.000 0.000 0.000
}
}
geometry IndexedFaceSet {
ccw TRUE
normalPerVertex TRUE
convex TRUE
creaseAngle 0.500
solid FALSE
coord Coordinate {
point [
8.72444 6.65023 -12.6359 ,5.755 7.92912 -10.5494 ,5.74571 7.92912 -10.687 ,8.68708 6.65023 -12.9627 ,5.71822 7.92912 -10.8212 ,5.67336 7.92912 -10.9499 ,8.59229 6.65023 -13.2776 ,5.6122 7.92912 -11.0707 ,8.44307 6.65023 -13.5708 ,5.53609 7.92912 -11.1818 ,5.44656 7.92912 -11.2815 ,8.24418 6.65023 -13.8328 ,5.34532 7.92912 -11.3682 ,5.23424 7.92912 -11.4407 ,8.00194 6.65023 -14.0553 ,5.11528 7.92912 -11.4979 ,7.72404 6.65023 -14.2312 ,4.99051 7.92912 -11.5392 ,4.86201 7.92912 -11.5642 ,7.41931 6.65023 -14.355 ,4.73189 7.92912 -11.5725
] }
coordIndex [
0 1 2 -1 3 2 4 -1 3 4 5 -1 3 0 2 -1 6 5 7 -1 6 3 5 -1 8 7 9 -1 8 9 10 -1 8 6 7 -1 11 10 12 -1 11 12 13 -1 11 8 10 -1 14 13 15 -1 14 11 13 -1 16 15 17 -1 16 17 18 -1 16 14 15 -1 19 18 20 -1 19 16 18 -1
]
}
}
Shape {
appearance Appearance {
material Material {
ambientIntensity 0.300
shininess 1.000
diffuseColor 0.479 0.485 0.485
transparency 0.000
specularColor 0.320 0.324 0.324
emissiveColor 0.000 0.000 0.000
}
}
geometry IndexedFaceSet {
ccw TRUE
normalPerVertex TRUE
convex TRUE
creaseAngle 0.500
solid FALSE
coord Coordinate {
point [
7.8099 3.06934 -14.3981 ,7.47418 3.06934 -14.5345 ,7.41931 6.65023 -14.355 ,7.72404 6.65023 -14.2312 ,8.00194 6.65023 -14.0553 ,8.11607 3.06934 -14.2042 ,8.24418 6.65023 -13.8328 ,8.38295 3.06934 -13.9591 ,8.44307 6.65023 -13.5708 ,8.60207 3.06934 -13.6705 ,8.59229 6.65023 -13.2776 ,8.76645 3.06934 -13.3475 ,8.68708 6.65023 -12.9627 ,8.87089 3.06934 -13.0005 ,8.72444 6.65023 -12.6359 ,8.91205 3.06934 -12.6405
] }
coordIndex [
0 1 2 -1 0 2 3 -1 0 3 4 -1 5 4 6 -1 5 0 4 -1 7 6 8 -1 7 5 6 -1 9 8 10 -1 9 7 8 -1 11 10 12 -1 11 9 10 -1 13 12 14 -1 13 11 12 -1 15 13 14 -1
]
}
}
Shape {
appearance Appearance {
material Material {
ambientIntensity 0.300
shininess 1.000
diffuseColor 0.479 0.485 0.485
transparency 0.000
specularColor 0.320 0.324 0.324
emissiveColor 0.000 0.000 0.000
}
}
geometry IndexedFaceSet {
ccw TRUE
normalPerVertex TRUE
convex TRUE
creaseAngle 0.500
solid FALSE
coord Coordinate {
point [
-8.03352 3.06934 -13.6409 ,-8.60207 3.06934 -13.6705 ,-8.2017 3.06934 -13.4194 ,-8.38295 3.06934 -13.9591 ,6.85485 3.06934 14.3378 ,6.76166 3.06934 14.3378 ,6.76166 3.06934 14.374 ,-7.82868 3.06934 -13.8291 ,7.00455 3.06934 14.3231 ,7.24347 3.06934 15.4888 ,-8.11607 3.06934 -14.2042 ,-7.59369 3.06934 -13.9779 ,7.1485 3.06934 14.2794 ,7.61894 3.06934 15.377 ,-7.8099 3.06934 -14.3981 ,7.28116 3.06934 14.2085 ,7.96597 3.06934 15.1952 ,7.39744 3.06934 14.1131 ,-7.47418 3.06934 -14.5345 ,-7.33601 3.06934 -14.0826 ,-2.47754 3.06934 -15.0563 ,8.27169 3.06934 14.9502 ,-2.52421 3.06934 -15.5266 ,7.49287 3.06934 13.9968 ,-8.41567 3.06934 13.4426 ,-8.83751 3.06934 13.9367 ,-8.7157 3.06934 14.309 ,-8.88562 3.06934 13.5479 ,9.05223 3.06934 -3.91132 ,8.57944 3.06934 -3.93866 ,8.57146 3.06934 4.75267 ,9.04342 3.06934 4.81898 ,-7.39744 3.06934 14.1131 ,-8.27169 3.06934 14.9502 ,-7.96597 3.06934 15.1952 ,2.47754 3.06934 -15.0563 ,8.52473 3.06934 14.6511 ,7.56377 3.06934 13.8642 ,-7.49287 3.06934 13.9968 ,2.52421 3.06934 -15.5266 ,-8.52473 3.06934 14.6511 ,-7.28116 3.06934 14.2085 ,-9.05223 3.06934 -3.91132 ,-9.04342 3.06934 4.81898 ,-8.57146 3.06934 4.75267 ,-7.61894 3.06934 15.377 ,-7.56377 3.06934 13.8642 ,-7.1485 3.06934 14.2794 ,-7.24347 3.06934 15.4888 ,8.91205 3.06934 -12.6405 ,8.43962 3.06934 -12.6289 ,-7.60744 3.06934 13.7202 ,8.7157 3.06934 14.309 ,-7.00455 3.06934 14.3231 ,-8.57944 3.06934 -3.93866 ,-7.62218 3.06934 13.5705 ,8.41567 3.06934 13.4426 ,7.62218 3.06934 13.4426 ,7.62218 3.06934 13.5705 ,7.60744 3.06934 13.7202 ,8.87089 3.06934 -13.0005 ,8.83751 3.06934 13.9367 ,8.40803 3.06934 -12.9052 ,-6.76166 3.06934 14.374 ,8.88562 3.06934 13.5479 ,-6.85352 3.06934 15.5266 ,-6.13867 3.06934 15.5266 ,-6.85485 3.06934 14.3378 ,7.47418 3.06934 -14.5345 ,-8.91205 3.06934 -12.6405 ,-7.62218 3.06934 13.4426 ,7.33601 3.06934 -14.0826 ,7.59369 3.06934 -13.9779 ,8.76645 3.06934 -13.3475 ,-6.76166 3.06934 14.3378 ,8.32787 3.06934 -13.1715 ,-8.43962 3.06934 -12.6289 ,-6.13867 3.06934 14.374 ,-8.40803 3.06934 -12.9052 ,-8.87089 3.06934 -13.0005 ,7.8099 3.06934 -14.3981 ,7.82868 3.06934 -13.8291 ,8.60207 3.06934 -13.6705 ,8.2017 3.06934 -13.4194 ,8.11607 3.06934 -14.2042 ,8.03352 3.06934 -13.6409 ,8.38295 3.06934 -13.9591 ,-8.32787 3.06934 -13.1715 ,-8.76645 3.06934 -13.3475 ,6.13867 3.06934 14.374 ,6.13867 3.06934 15.5266 ,6.85352 3.06934 15.5266
] }
coordIndex [
0 1 2 -1 0 3 1 -1 4 5 6 -1 7 3 0 -1 8 6 9 -1 8 4 6 -1 10 3 7 -1 11 10 7 -1 12 9 13 -1 12 8 9 -1 14 10 11 -1 15 13 16 -1 15 12 13 -1 17 15 16 -1 18 14 11 -1 18 11 19 -1 20 18 19 -1 21 17 16 -1 22 18 20 -1 23 17 21 -1 24 25 26 -1 24 27 25 -1 28 29 30 -1 28 30 31 -1 32 33 34 -1 35 22 20 -1 36 37 23 -1 38 33 32 -1 39 22 35 -1 38 40 33 -1 36 23 21 -1 41 32 34 -1 42 43 44 -1 41 34 45 -1 46 24 26 -1 46 40 38 -1 46 26 40 -1 47 41 45 -1 47 45 48 -1 49 50 29 -1 51 24 46 -1 49 29 28 -1 52 37 36 -1 53 47 48 -1 54 42 44 -1 55 24 51 -1 56 57 58 -1 56 59 37 -1 56 58 59 -1 60 50 49 -1 56 52 61 -1 56 37 52 -1 60 62 50 -1 63 53 48 -1 64 56 61 -1 63 48 65 -1 63 65 66 -1 63 67 53 -1 68 39 35 -1 69 42 54 -1 70 24 55 -1 68 35 71 -1 68 71 72 -1 73 62 60 -1 74 67 63 -1 73 75 62 -1 76 69 54 -1 77 63 66 -1 78 79 69 -1 80 68 72 -1 78 69 76 -1 43 27 24 -1 80 72 81 -1 82 75 73 -1 82 83 75 -1 44 43 24 -1 84 80 81 -1 84 81 85 -1 86 83 82 -1 87 79 78 -1 86 84 85 -1 86 85 83 -1 87 88 79 -1 31 30 56 -1 31 56 64 -1 2 88 87 -1 2 1 88 -1 6 89 90 -1 6 90 91 -1 6 91 9 -1
]
}
}
Shape {
appearance Appearance {
material Material {
ambientIntensity 0.300
shininess 1.000
diffuseColor 0.479 0.485 0.485
transparency 0.000
specularColor 0.320 0.324 0.324
emissiveColor 0.000 0.000 0.000
}
}
geometry IndexedFaceSet {
ccw TRUE
normalPerVertex TRUE
convex TRUE
creaseAngle 0.500
solid FALSE
coord Coordinate {
point [
8.41441 1.79045 4.75396 ,8.41567 3.06934 13.4426 ,8.25859 1.79045 13.4426 ,8.57146 3.06934 4.75267 ,8.42243 1.79045 -3.93609 ,8.57944 3.06934 -3.93866 ,8.28264 1.79045 -12.625 ,8.43962 3.06934 -12.6289
] }
coordIndex [
0 1 2 -1 3 1 0 -1 4 3 0 -1 5 3 4 -1 6 5 4 -1 7 5 6 -1
]
}
}
Shape {
appearance Appearance {
material Material {
ambientIntensity 0.300
shininess 1.000
diffuseColor 0.479 0.485 0.485
transparency 0.000
specularColor 0.320 0.324 0.324
emissiveColor 0.000 0.000 0.000
}
}
geometry IndexedFaceSet {
ccw TRUE
normalPerVertex TRUE
convex TRUE
creaseAngle 0.500
solid FALSE
coord Coordinate {
point [
8.25859 1.79045 13.4426 ,7.62218 1.79045 13.4426 ,7.62218 3.06934 13.4426 ,8.41567 3.06934 13.4426
] }
coordIndex [
0 1 2 -1 0 2 3 -1
]
}
}
Shape {
appearance Appearance {
material Material {
ambientIntensity 0.300
shininess 1.000
diffuseColor 0.479 0.485 0.485
transparency 0.000
specularColor 0.320 0.324 0.324
emissiveColor 0.000 0.000 0.000
}
}
geometry IndexedFaceSet {
ccw TRUE
normalPerVertex TRUE
convex TRUE
creaseAngle 0.500
solid FALSE
coord Coordinate {
point [
2.46204 1.79045 -14.9001 ,-2.46204 1.79045 -14.9001 ,-1.21851 1.79045 -14.3449 ,1.21851 1.79045 -14.3449 ,3.64325 1.79045 -14.1006 ,3.67183 1.79045 -14.289 ,-7.97857 1.79045 -1.68886 ,-8.43451 1.79045 -1.6926 ,-8.42271 1.79045 3.77421 ,-7.96674 1.79045 3.77421 ,4.8459 1.79045 -14.0815 ,7.85741 1.79045 11.1769 ,7.62218 1.79045 13.4426 ,8.25859 1.79045 13.4426 ,7.62218 1.79045 11.1769 ,-7.93193 1.79045 -7.15174 ,-8.38782 1.79045 -7.15921 ,8.28264 1.79045 -12.625 ,7.96024 1.79045 -4.68403 ,8.42243 1.79045 -3.93609 ,8.41441 1.79045 4.75396 ,7.80764 1.79045 -12.7816 ,7.82683 1.79045 -12.6138 ,8.25423 1.79045 -12.8735 ,-7.82683 1.79045 -12.6138 ,-8.28264 1.79045 -12.625 ,7.75898 1.79045 -12.9433 ,7.2901 1.79045 -13.9324 ,-7.80764 1.79045 -12.7816 ,-8.18214 1.79045 -13.1131 ,-8.25423 1.79045 -12.8735 ,6.00847 1.79045 -13.8171 ,7.1568 1.79045 -13.4964 ,-7.75898 1.79045 -12.9433 ,8.18214 1.79045 -13.1131 ,7.68238 1.79045 -13.0938 ,-8.06866 1.79045 -13.336 ,7.52185 1.79045 -13.8383 ,7.31324 1.79045 -13.4328 ,-7.68238 1.79045 -13.0938 ,8.06866 1.79045 -13.336 ,7.58027 1.79045 -13.2283 ,7.73319 1.79045 -13.7044 ,7.45591 1.79045 -13.3425 ,-7.91741 1.79045 -13.5352 ,-7.58027 1.79045 -13.2283 ,7.91741 1.79045 -13.5352 ,7.97043 1.79045 3.24686 ,-7.73319 1.79045 -13.7044 ,-7.45591 1.79045 -13.3425 ,-7.52185 1.79045 -13.8383 ,-7.31324 1.79045 -13.4328 ,-7.1568 1.79045 -13.4964 ,-7.2901 1.79045 -13.9324 ,-6.00847 1.79045 -13.8171 ,-4.8459 1.79045 -14.0815 ,-3.67183 1.79045 -14.289 ,-3.64325 1.79045 -14.1006
] }
coordIndex [
0 1 2 -1 0 2 3 -1 4 0 3 -1 5 0 4 -1 6 7 8 -1 6 8 9 -1 10 0 5 -1 11 12 13 -1 11 14 12 -1 15 16 7 -1 15 7 6 -1 17 18 19 -1 20 11 13 -1 17 21 22 -1 17 22 18 -1 23 21 17 -1 24 25 16 -1 24 16 15 -1 23 26 21 -1 27 0 10 -1 28 29 30 -1 27 31 32 -1 28 30 25 -1 27 10 31 -1 28 25 24 -1 33 29 28 -1 34 35 26 -1 34 26 23 -1 36 29 33 -1 37 32 38 -1 37 27 32 -1 39 36 33 -1 40 41 35 -1 40 35 34 -1 42 38 43 -1 44 36 39 -1 42 37 38 -1 45 44 39 -1 46 42 43 -1 46 43 41 -1 46 41 40 -1 47 11 20 -1 48 44 45 -1 48 45 49 -1 50 48 49 -1 50 49 51 -1 52 50 51 -1 53 50 52 -1 54 53 52 -1 55 53 54 -1 1 53 55 -1 1 55 56 -1 1 56 57 -1 19 47 20 -1 18 47 19 -1 2 1 57 -1
]
}
}
Shape {
appearance Appearance {
material Material {
ambientIntensity 0.300
shininess 1.000
diffuseColor 0.479 0.485 0.485
transparency 0.000
specularColor 0.320 0.324 0.324
emissiveColor 0.000 0.000 0.000
}
}
geometry IndexedFaceSet {
ccw TRUE
normalPerVertex TRUE
convex TRUE
creaseAngle 0.500
solid FALSE
coord Coordinate {
point [
-8.29646 1.79045 11.9251 ,-8.25859 1.79045 13.4426 ,-7.62218 1.79045 13.4426 ,-7.62218 1.79045 11.1769 ,-7.85741 1.79045 11.1769 ,-8.32982 1.79045 10.4075 ,-7.87363 1.79045 10.4146 ,-7.88871 1.79045 9.65218 ,-8.35868 1.79045 8.88977 ,-7.90265 1.79045 8.88977
] }
coordIndex [
0 1 2 -1 3 0 2 -1 3 4 0 -1 5 0 4 -1 6 5 4 -1 7 5 6 -1 8 5 7 -1 9 8 7 -1
]
}
}
Shape {
appearance Appearance {
material Material {
ambientIntensity 0.300
shininess 1.000
diffuseColor 0.479 0.485 0.485
transparency 0.000
specularColor 0.320 0.324 0.324
emissiveColor 0.000 0.000 0.000
}
}
geometry IndexedFaceSet {
ccw TRUE
normalPerVertex TRUE
convex TRUE
creaseAngle 0.500
solid FALSE
coord Coordinate {
point [
8.40803 3.06934 -12.9052 ,8.28264 1.79045 -12.625 ,8.25423 1.79045 -12.8735 ,8.43962 3.06934 -12.6289 ,8.32787 3.06934 -13.1715 ,8.18214 1.79045 -13.1131 ,8.2017 3.06934 -13.4194 ,8.06866 1.79045 -13.336 ,8.03352 3.06934 -13.6409 ,7.91741 1.79045 -13.5352 ,7.82868 3.06934 -13.8291 ,7.73319 1.79045 -13.7044 ,7.59369 3.06934 -13.9779 ,7.52185 1.79045 -13.8383 ,7.33601 3.06934 -14.0826 ,7.2901 1.79045 -13.9324
] }
coordIndex [
0 1 2 -1 0 3 1 -1 4 2 5 -1 4 0 2 -1 6 5 7 -1 6 4 5 -1 8 7 9 -1 8 6 7 -1 10 9 11 -1 10 8 9 -1 12 11 13 -1 12 10 11 -1 14 13 15 -1 14 12 13 -1
]
}
}
Shape {
appearance Appearance {
material Material {
ambientIntensity 0.300
shininess 1.000
diffuseColor 0.479 0.485 0.485
transparency 0.000
specularColor 0.320 0.324 0.324
emissiveColor 0.000 0.000 0.000
}
}
geometry IndexedFaceSet {
ccw TRUE
normalPerVertex TRUE
convex TRUE
creaseAngle 0.500
solid FALSE
coord Coordinate {
point [
2.46204 1.79045 -14.9001 ,7.33601 3.06934 -14.0826 ,7.2901 1.79045 -13.9324 ,2.47754 3.06934 -15.0563 ,-2.46204 1.79045 -14.9001 ,-2.47754 3.06934 -15.0563 ,-7.2901 1.79045 -13.9324 ,-7.33601 3.06934 -14.0826
] }
coordIndex [
0 1 2 -1 3 1 0 -1 4 3 0 -1 5 3 4 -1 6 5 4 -1 7 5 6 -1
]
}
}
Shape {
appearance Appearance {
material Material {
ambientIntensity 0.300
shininess 1.000
diffuseColor 0.479 0.485 0.485
transparency 0.000
specularColor 0.320 0.324 0.324
emissiveColor 0.000 0.000 0.000
}
}
geometry IndexedFaceSet {
ccw TRUE
normalPerVertex TRUE
convex TRUE
creaseAngle 0.500
solid FALSE
coord Coordinate {
point [
-7.59369 3.06934 -13.9779 ,-7.2901 1.79045 -13.9324 ,-7.52185 1.79045 -13.8383 ,-7.33601 3.06934 -14.0826 ,-7.82868 3.06934 -13.8291 ,-7.73319 1.79045 -13.7044 ,-8.03352 3.06934 -13.6409 ,-7.91741 1.79045 -13.5352 ,-8.2017 3.06934 -13.4194 ,-8.06866 1.79045 -13.336 ,-8.32787 3.06934 -13.1715 ,-8.18214 1.79045 -13.1131 ,-8.40803 3.06934 -12.9052 ,-8.25423 1.79045 -12.8735 ,-8.43962 3.06934 -12.6289 ,-8.28264 1.79045 -12.625
] }
coordIndex [
0 1 2 -1 0 3 1 -1 4 2 5 -1 4 0 2 -1 6 5 7 -1 6 4 5 -1 8 7 9 -1 8 6 7 -1 10 9 11 -1 10 8 9 -1 12 11 13 -1 12 10 11 -1 14 13 15 -1 14 12 13 -1
]
}
}
Shape {
appearance Appearance {
material Material {
ambientIntensity 0.300
shininess 1.000
diffuseColor 0.479 0.485 0.485
transparency 0.000
specularColor 0.320 0.324 0.324
emissiveColor 0.000 0.000 0.000
}
}
geometry IndexedFaceSet {
ccw TRUE
normalPerVertex TRUE
convex TRUE
creaseAngle 0.500
solid FALSE
coord Coordinate {
point [
-8.38782 1.79045 -7.15921 ,-8.43962 3.06934 -12.6289 ,-8.28264 1.79045 -12.625 ,-8.57944 3.06934 -3.93866 ,-8.43451 1.79045 -1.6926 ,-8.48552 2.302 3.77421 ,-8.42271 1.79045 3.77421 ,-8.57146 3.06934 4.75267 ,-8.46987 2.302 5.47946 ,-8.44853 2.302 7.18466 ,-8.4215 2.302 8.88977 ,-8.32982 1.79045 10.4075 ,-8.35868 1.79045 8.88977 ,-8.41567 3.06934 13.4426 ,-8.29646 1.79045 11.9251 ,-8.25859 1.79045 13.4426
] }
coordIndex [
0 1 2 -1 3 1 0 -1 4 3 0 -1 5 4 6 -1 7 5 8 -1 7 3 4 -1 7 4 5 -1 9 7 8 -1 10 7 9 -1 11 10 12 -1 13 11 14 -1 13 14 15 -1 13 10 11 -1 13 7 10 -1
]
}
}
Shape {
appearance Appearance {
material Material {
ambientIntensity 0.300
shininess 1.000
diffuseColor 0.479 0.485 0.485
transparency 0.000
specularColor 0.320 0.324 0.324
emissiveColor 0.000 0.000 0.000
}
}
geometry IndexedFaceSet {
ccw TRUE
normalPerVertex TRUE
convex TRUE
creaseAngle 0.500
solid FALSE
coord Coordinate {
point [
-8.25859 1.79045 13.4426 ,-8.41567 3.06934 13.4426 ,-7.62218 3.06934 13.4426 ,-7.62218 1.79045 13.4426
] }
coordIndex [
0 1 2 -1 3 0 2 -1
]
}
}
Shape {
appearance Appearance {
material Material {
ambientIntensity 0.300
shininess 1.000
diffuseColor 0.479 0.485 0.485
transparency 0.000
specularColor 0.320 0.324 0.324
emissiveColor 0.000 0.000 0.000
}
}
geometry IndexedFaceSet {
ccw TRUE
normalPerVertex TRUE
convex TRUE
creaseAngle 0.500
solid FALSE
coord Coordinate {
point [
-7.62218 1.79045 13.5705 ,-7.62218 1.79045 13.4426 ,-7.62218 3.06934 13.4426 ,-7.62218 3.06934 13.5705
] }
coordIndex [
0 1 2 -1 0 2 3 -1
]
}
}
Shape {
appearance Appearance {
material Material {
ambientIntensity 0.300
shininess 1.000
diffuseColor 0.479 0.485 0.485
transparency 0.000
specularColor 0.320 0.324 0.324
emissiveColor 0.000 0.000 0.000
}
}
geometry IndexedFaceSet {
ccw TRUE
normalPerVertex TRUE
convex TRUE
creaseAngle 0.500
solid FALSE
coord Coordinate {
point [
-7.62218 1.79045 13.4426 ,-7.61298 1.26335 11.2699 ,-7.62218 1.79045 11.1769 ,-7.5954 0.255778 12.4707 ,-7.62218 1.79045 13.5705 ,-7.5954 0.255778 15.2562 ,-7.62218 1.79045 14.897 ,-7.62152 1.75254 15.3303
] }
coordIndex [
0 1 2 -1 3 0 4 -1 3 1 0 -1 5 6 7 -1 5 4 6 -1 5 3 4 -1
]
}
}
Shape {
appearance Appearance {
material Material {
ambientIntensity 0.300
shininess 1.000
diffuseColor 0.479 0.485 0.485
transparency 0.000
specularColor 0.320 0.324 0.324
emissiveColor 0.000 0.000 0.000
}
}
geometry IndexedFaceSet {
ccw TRUE
normalPerVertex TRUE
convex TRUE
creaseAngle 0.500
solid FALSE
coord Coordinate {
point [
-6.78398 1.79045 14.897 ,-6.78487 1.73912 15.4837 ,-6.85352 1.73912 15.4837 ,-7.11632 1.74063 15.4664 ,-7.37232 1.74511 15.4152 ,-7.62218 1.79045 14.897 ,-7.62152 1.75254 15.3303
] }
coordIndex [
0 1 2 -1 0 2 3 -1 4 0 3 -1 5 4 6 -1 5 0 4 -1
]
}
}
Shape {
appearance Appearance {
material Material {
ambientIntensity 0.300
shininess 1.000
diffuseColor 0.479 0.485 0.485
transparency 0.000
specularColor 0.320 0.324 0.324
emissiveColor 0.000 0.000 0.000
}
}
geometry IndexedFaceSet {
ccw TRUE
normalPerVertex TRUE
convex TRUE
creaseAngle 0.500
solid FALSE
coord Coordinate {
point [
-6.79318 1.26335 11.2699 ,-6.70579 6.2701 10.3871 ,-6.70595 6.26095 11.9046 ,-6.76166 3.06934 14.3378 ,-6.70655 6.2261 12.3182 ,-6.70835 6.12331 12.9208 ,-6.71409 5.79423 14.2312 ,-6.76166 3.06934 14.374 ,-6.78398 1.79045 14.3378 ,-6.81077 0.255778 12.4707 ,-6.81077 0.255778 15.4059 ,-6.78398 1.79045 14.897 ,-6.78487 1.73912 15.4837
] }
coordIndex [
0 1 2 -1 3 2 4 -1 3 4 5 -1 3 5 6 -1 3 0 2 -1 7 3 6 -1 8 9 0 -1 8 0 3 -1 10 11 12 -1 10 8 11 -1 10 9 8 -1
]
}
}
Shape {
appearance Appearance {
material Material {
ambientIntensity 0.300
shininess 1.000
diffuseColor 0.479 0.485 0.485
transparency 0.000
specularColor 0.320 0.324 0.324
emissiveColor 0.000 0.000 0.000
}
}
geometry IndexedFaceSet {
ccw TRUE
normalPerVertex TRUE
convex TRUE
creaseAngle 0.500
solid FALSE
coord Coordinate {
point [
6.44526 5.80286 14.2308 ,5.99909 4.92446 14.2768 ,6.03424 4.87499 14.2794 ,5.95888 4.9688 14.2745 ,5.91386 5.00825 14.2724 ,5.86378 5.04256 14.2706 ,5.80827 5.07135 14.2691 ,5.74682 5.0941 14.2679 ,5.67825 5.10963 14.2671 ,5.60025 5.11556 14.2668 ,-6.11173 4.61293 14.2931 ,-6.76166 3.06934 14.374 ,-6.13867 3.06934 14.374 ,6.71409 5.79423 14.2312 ,6.10445 4.69073 14.289 ,6.11173 4.61293 14.2931 ,6.08776 4.75897 14.2855 ,6.06397 4.82 14.2823 ,6.76166 3.06934 14.374 ,-6.44526 5.80286 14.2308 ,-5.60025 5.11556 14.2668 ,-6.71409 5.79423 14.2312 ,-6.06397 4.82 14.2823 ,-6.03424 4.87499 14.2794 ,-6.08776 4.75897 14.2855 ,-6.10445 4.69073 14.289 ,-5.80827 5.07135 14.2691 ,-5.74682 5.0941 14.2679 ,-5.86378 5.04256 14.2706 ,-5.91386 5.00825 14.2724 ,-5.95888 4.9688 14.2745 ,-5.99909 4.92446 14.2768 ,-5.67825 5.10963 14.2671 ,6.13867 3.06934 14.374
] }
coordIndex [
0 1 2 -1 0 3 1 -1 0 4 3 -1 0 5 4 -1 0 6 5 -1 0 7 6 -1 0 8 7 -1 0 9 8 -1 10 11 12 -1 13 14 15 -1 13 16 14 -1 13 17 16 -1 13 2 17 -1 13 15 18 -1 13 0 2 -1 0 19 20 -1 0 20 9 -1 21 22 23 -1 21 24 22 -1 21 25 24 -1 21 10 25 -1 21 11 10 -1 19 26 27 -1 19 28 26 -1 19 29 28 -1 19 30 29 -1 19 31 30 -1 19 23 31 -1 19 21 23 -1 32 19 27 -1 20 19 32 -1 15 33 18 -1
]
}
}
Shape {
appearance Appearance {
material Material {
ambientIntensity 0.300
shininess 1.000
diffuseColor 0.479 0.485 0.485
transparency 0.000
specularColor 0.320 0.324 0.324
emissiveColor 0.000 0.000 0.000
}
}
geometry IndexedFaceSet {
ccw TRUE
normalPerVertex TRUE
convex TRUE
creaseAngle 0.500
solid FALSE
coord Coordinate {
point [
-6.13867 3.06934 14.374 ,-6.13867 3.06934 15.5266 ,-6.11173 4.61293 15.4457 ,-6.11173 4.61293 14.2931
] }
coordIndex [
0 1 2 -1 0 2 3 -1
]
}
}
Shape {
appearance Appearance {
material Material {
ambientIntensity 0.300
shininess 1.000
diffuseColor 0.479 0.485 0.485
transparency 0.000
specularColor 0.320 0.324 0.324
emissiveColor 0.000 0.000 0.000
}
}
geometry IndexedFaceSet {
ccw TRUE
normalPerVertex TRUE
convex TRUE
creaseAngle 0.500
solid FALSE
coord Coordinate {
point [
6.85352 6.65023 15.3389 ,5.91386 5.00825 15.425 ,5.95888 4.9688 15.427 ,5.99909 4.92446 15.4294 ,6.03424 4.87499 15.432 ,6.06397 4.82 15.4348 ,6.08776 4.75897 15.438 ,6.10445 4.69073 15.4416 ,6.11173 4.61293 15.4457 ,6.85352 3.06934 15.5266 ,-6.11173 4.61293 15.4457 ,-6.85352 3.06934 15.5266 ,-6.13867 3.06934 15.5266 ,-6.85352 6.65023 15.3389 ,5.60025 5.11556 15.4194 ,-6.10445 4.69073 15.4416 ,-6.08776 4.75897 15.438 ,-6.06397 4.82 15.4348 ,-6.03424 4.87499 15.432 ,-5.99909 4.92446 15.4294 ,-5.95888 4.9688 15.427 ,-5.91386 5.00825 15.425 ,-5.86378 5.04256 15.4232 ,-5.80827 5.07135 15.4217 ,-5.74682 5.0941 15.4205 ,-5.67825 5.10963 15.4197 ,-5.60025 5.11556 15.4194 ,6.13867 3.06934 15.5266 ,5.67825 5.10963 15.4197 ,5.74682 5.0941 15.4205 ,5.80827 5.07135 15.4217 ,5.86378 5.04256 15.4232
] }
coordIndex [
0 1 2 -1 0 2 3 -1 0 3 4 -1 0 4 5 -1 0 5 6 -1 0 6 7 -1 0 7 8 -1 0 8 9 -1 10 11 12 -1 0 13 14 -1 13 10 15 -1 13 15 16 -1 13 16 17 -1 13 17 18 -1 13 18 19 -1 13 19 20 -1 13 20 21 -1 13 21 22 -1 13 22 23 -1 13 23 24 -1 13 24 25 -1 13 25 26 -1 13 11 10 -1 14 13 26 -1 8 27 9 -1 0 14 28 -1 0 28 29 -1 0 29 30 -1 0 30 31 -1 0 31 1 -1
]
}
}
Shape {
appearance Appearance {
material Material {
ambientIntensity 0.300
shininess 1.000
diffuseColor 0.479 0.485 0.485
transparency 0.000
specularColor 0.320 0.324 0.324
emissiveColor 0.000 0.000 0.000
}
}
geometry IndexedFaceSet {
ccw TRUE
normalPerVertex TRUE
convex TRUE
creaseAngle 0.500
solid FALSE
coord Coordinate {
point [
6.13867 3.06934 14.374 ,6.11173 4.61293 14.2931 ,6.11173 4.61293 15.4457 ,6.13867 3.06934 15.5266
] }
coordIndex [
0 1 2 -1 3 0 2 -1
]
}
}
Shape {
appearance Appearance {
material Material {
ambientIntensity 0.300
shininess 1.000
diffuseColor 0.479 0.485 0.485
transparency 0.000
specularColor 0.320 0.324 0.324
emissiveColor 0.000 0.000 0.000
}
}
geometry IndexedFaceSet {
ccw TRUE
normalPerVertex TRUE
convex TRUE
creaseAngle 0.500
solid FALSE
coord Coordinate {
point [
5.67825 5.10963 14.2671 ,5.60025 5.11556 14.2668 ,5.60025 5.11556 15.4194 ,5.67825 5.10963 15.4197 ,5.74682 5.0941 14.2679 ,5.74682 5.0941 15.4205 ,5.80827 5.07135 14.2691 ,5.80827 5.07135 15.4217 ,5.86378 5.04256 14.2706 ,5.86378 5.04256 15.4232 ,5.91386 5.00825 14.2724 ,5.91386 5.00825 15.425 ,5.95888 4.9688 14.2745 ,5.95888 4.9688 15.427 ,5.99909 4.92446 14.2768 ,5.99909 4.92446 15.4294 ,6.03424 4.87499 14.2794 ,6.03424 4.87499 15.432 ,6.06397 4.82 14.2823 ,6.06397 4.82 15.4348 ,6.08776 4.75897 14.2855 ,6.08776 4.75897 15.438 ,6.10445 4.69073 14.289 ,6.10445 4.69073 15.4416 ,6.11173 4.61293 14.2931 ,6.11173 4.61293 15.4457
] }
coordIndex [
0 1 2 -1 0 2 3 -1 4 3 5 -1 4 0 3 -1 6 5 7 -1 6 4 5 -1 8 7 9 -1 8 6 7 -1 10 9 11 -1 10 8 9 -1 12 11 13 -1 12 10 11 -1 14 13 15 -1 14 12 13 -1 16 15 17 -1 16 14 15 -1 18 17 19 -1 18 16 17 -1 20 19 21 -1 20 18 19 -1 22 21 23 -1 22 20 21 -1 24 23 25 -1 24 22 23 -1
]
}
}
Shape {
appearance Appearance {
material Material {
ambientIntensity 0.300
shininess 1.000
diffuseColor 0.479 0.485 0.485
transparency 0.000
specularColor 0.320 0.324 0.324
emissiveColor 0.000 0.000 0.000
}
}
geometry IndexedFaceSet {
ccw TRUE
normalPerVertex TRUE
convex TRUE
creaseAngle 0.500
solid FALSE
coord Coordinate {
point [
-5.60025 5.11556 15.4194 ,5.60025 5.11556 15.4194 ,5.60025 5.11556 14.2668 ,-5.60025 5.11556 14.2668
] }
coordIndex [
0 1 2 -1 0 2 3 -1
]
}
}
Shape {
appearance Appearance {
material Material {
ambientIntensity 0.300
shininess 1.000
diffuseColor 0.479 0.485 0.485
transparency 0.000
specularColor 0.320 0.324 0.324
emissiveColor 0.000 0.000 0.000
}
}
geometry IndexedFaceSet {
ccw TRUE
normalPerVertex TRUE
convex TRUE
creaseAngle 0.500
solid FALSE
coord Coordinate {
point [
-5.60025 5.11556 15.4194 ,-5.60025 5.11556 14.2668 ,-5.67825 5.10963 14.2671 ,-5.67825 5.10963 15.4197 ,-5.74682 5.0941 14.2679 ,-5.74682 5.0941 15.4205 ,-5.80827 5.07135 14.2691 ,-5.80827 5.07135 15.4217 ,-5.86378 5.04256 14.2706 ,-5.86378 5.04256 15.4232 ,-5.91386 5.00825 14.2724 ,-5.91386 5.00825 15.425 ,-5.95888 4.9688 14.2745 ,-5.95888 4.9688 15.427 ,-5.99909 4.92446 14.2768 ,-5.99909 4.92446 15.4294 ,-6.03424 4.87499 14.2794 ,-6.03424 4.87499 15.432 ,-6.06397 4.82 14.2823 ,-6.06397 4.82 15.4348 ,-6.08776 4.75897 14.2855 ,-6.08776 4.75897 15.438 ,-6.10445 4.69073 14.289 ,-6.10445 4.69073 15.4416 ,-6.11173 4.61293 14.2931 ,-6.11173 4.61293 15.4457
] }
coordIndex [
0 1 2 -1 3 2 4 -1 3 0 2 -1 5 4 6 -1 5 3 4 -1 7 6 8 -1 7 5 6 -1 9 8 10 -1 9 7 8 -1 11 10 12 -1 11 9 10 -1 13 12 14 -1 13 11 12 -1 15 14 16 -1 15 13 14 -1 17 16 18 -1 17 15 16 -1 19 18 20 -1 19 17 18 -1 21 20 22 -1 21 19 20 -1 23 22 24 -1 23 21 22 -1 25 23 24 -1
]
}
}
Shape {
appearance Appearance {
material Material {
ambientIntensity 0.300
shininess 1.000
diffuseColor 0.479 0.485 0.485
transparency 0.000
specularColor 0.320 0.324 0.324
emissiveColor 0.000 0.000 0.000
}
}
geometry IndexedFaceSet {
ccw TRUE
normalPerVertex TRUE
convex TRUE
creaseAngle 0.500
solid FALSE
coord Coordinate {
point [
-6.85352 3.06934 15.5266 ,-6.85352 6.65023 15.3389 ,-7.20747 6.65023 15.3047 ,-7.24347 3.06934 15.4888 ,-7.54827 6.65023 15.2031 ,-7.61894 3.06934 15.377 ,-7.86327 6.65023 15.0381 ,-7.96597 3.06934 15.1952 ,-8.14077 6.65023 14.8157 ,-8.27169 3.06934 14.9502 ,-8.37045 6.65023 14.5443 ,-8.52473 3.06934 14.6511 ,-8.54379 6.65023 14.2338 ,-8.7157 3.06934 14.309 ,-8.65435 6.65023 13.8958 ,-8.83751 3.06934 13.9367 ,-8.69802 6.65023 13.5429 ,-8.88562 3.06934 13.5479
] }
coordIndex [
0 1 2 -1 3 2 4 -1 3 0 2 -1 5 4 6 -1 5 3 4 -1 7 6 8 -1 7 5 6 -1 9 8 10 -1 9 7 8 -1 11 10 12 -1 11 9 10 -1 13 12 14 -1 13 11 12 -1 15 14 16 -1 15 13 14 -1 17 15 16 -1
]
}
}
Shape {
appearance Appearance {
material Material {
ambientIntensity 0.300
shininess 1.000
diffuseColor 0.479 0.485 0.485
transparency 0.000
specularColor 0.320 0.324 0.324
emissiveColor 0.000 0.000 0.000
}
}
geometry IndexedFaceSet {
ccw TRUE
normalPerVertex TRUE
convex TRUE
creaseAngle 0.500
solid FALSE
coord Coordinate {
point [
-8.85576 6.65023 4.81719 ,-8.88562 3.06934 13.5479 ,-8.69802 6.65023 13.5429 ,-9.04342 3.06934 4.81898 ,-8.86457 6.65023 -3.90991 ,-9.05223 3.06934 -3.91132 ,-8.72444 6.65023 -12.6359 ,-8.91205 3.06934 -12.6405
] }
coordIndex [
0 1 2 -1 3 1 0 -1 4 3 0 -1 5 3 4 -1 6 5 4 -1 7 5 6 -1
]
}
}
Shape {
appearance Appearance {
material Material {
ambientIntensity 0.300
shininess 1.000
diffuseColor 0.479 0.485 0.485
transparency 0.000
specularColor 0.320 0.324 0.324
emissiveColor 0.000 0.000 0.000
}
}
geometry IndexedFaceSet {
ccw TRUE
normalPerVertex TRUE
convex TRUE
creaseAngle 0.500
solid FALSE
coord Coordinate {
point [
-8.91205 3.06934 -12.6405 ,-8.72444 6.65023 -12.6359 ,-8.68708 6.65023 -12.9627 ,-8.87089 3.06934 -13.0005 ,-8.76645 3.06934 -13.3475 ,-8.59229 6.65023 -13.2776 ,-8.60207 3.06934 -13.6705 ,-8.44307 6.65023 -13.5708 ,-8.38295 3.06934 -13.9591 ,-8.24418 6.65023 -13.8328 ,-8.11607 3.06934 -14.2042 ,-8.00194 6.65023 -14.0553 ,-7.8099 3.06934 -14.3981 ,-7.72404 6.65023 -14.2312 ,-7.47418 3.06934 -14.5345 ,-7.41931 6.65023 -14.355
] }
coordIndex [
0 1 2 -1 3 0 2 -1 4 2 5 -1 4 3 2 -1 6 5 7 -1 6 4 5 -1 8 7 9 -1 8 6 7 -1 10 9 11 -1 10 8 9 -1 12 11 13 -1 12 10 11 -1 14 13 15 -1 14 12 13 -1
]
}
}
Shape {
appearance Appearance {
material Material {
ambientIntensity 0.300
shininess 1.000
diffuseColor 0.479 0.485 0.485
transparency 0.000
specularColor 0.320 0.324 0.324
emissiveColor 0.000 0.000 0.000
}
}
geometry IndexedFaceSet {
ccw TRUE
normalPerVertex TRUE
convex TRUE
creaseAngle 0.500
solid FALSE
coord Coordinate {
point [
-2.50568 6.65023 -15.3398 ,-7.47418 3.06934 -14.5345 ,-7.41931 6.65023 -14.355 ,-2.52421 3.06934 -15.5266 ,2.52421 3.06934 -15.5266 ,2.50568 6.65023 -15.3398 ,7.41931 6.65023 -14.355 ,7.47418 3.06934 -14.5345
] }
coordIndex [
0 1 2 -1 3 1 0 -1 4 0 5 -1 4 3 0 -1 6 4 5 -1 7 4 6 -1
]
}
}
Shape {
appearance Appearance {
material Material {
ambientIntensity 0.300
shininess 1.000
diffuseColor 0.479 0.485 0.485
transparency 0.000
specularColor 0.320 0.324 0.324
emissiveColor 0.000 0.000 0.000
}
}
geometry IndexedFaceSet {
ccw TRUE
normalPerVertex TRUE
convex TRUE
creaseAngle 0.500
solid FALSE
coord Coordinate {
point [
8.88562 3.06934 13.5479 ,8.69802 6.65023 13.5429 ,8.65435 6.65023 13.8958 ,8.83751 3.06934 13.9367 ,8.7157 3.06934 14.309 ,8.54379 6.65023 14.2338 ,8.52473 3.06934 14.6511 ,8.37045 6.65023 14.5443 ,8.27169 3.06934 14.9502 ,8.14077 6.65023 14.8157 ,7.96597 3.06934 15.1952 ,7.86327 6.65023 15.0381 ,7.61894 3.06934 15.377 ,7.54827 6.65023 15.2031 ,7.24347 3.06934 15.4888 ,7.20747 6.65023 15.3047 ,6.85352 6.65023 15.3389 ,6.85352 3.06934 15.5266
] }
coordIndex [
0 1 2 -1 3 0 2 -1 4 2 5 -1 4 3 2 -1 6 5 7 -1 6 4 5 -1 8 7 9 -1 8 6 7 -1 10 9 11 -1 10 8 9 -1 12 11 13 -1 12 10 11 -1 14 13 15 -1 14 15 16 -1 14 12 13 -1 17 14 16 -1
]
}
}
Shape {
appearance Appearance {
material Material {
ambientIntensity 0.300
shininess 1.000
diffuseColor 0.479 0.485 0.485
transparency 0.000
specularColor 0.320 0.324 0.324
emissiveColor 0.000 0.000 0.000
}
}
geometry IndexedFaceSet {
ccw TRUE
normalPerVertex TRUE
convex TRUE
creaseAngle 0.500
solid FALSE
coord Coordinate {
point [
8.86457 6.65023 -3.90991 ,8.91205 3.06934 -12.6405 ,8.72444 6.65023 -12.6359 ,9.05223 3.06934 -3.91132 ,8.85576 6.65023 4.81719 ,9.04342 3.06934 4.81898 ,8.69802 6.65023 13.5429 ,8.88562 3.06934 13.5479
] }
coordIndex [
0 1 2 -1 3 1 0 -1 4 3 0 -1 5 3 4 -1 6 5 4 -1 7 5 6 -1
]
}
}
Shape {
appearance Appearance {
material Material {
ambientIntensity 0.300
shininess 1.000
diffuseColor 0.479 0.485 0.485
transparency 0.000
specularColor 0.320 0.324 0.324
emissiveColor 0.000 0.000 0.000
}
}
geometry IndexedFaceSet {
ccw TRUE
normalPerVertex TRUE
convex TRUE
creaseAngle 0.500
solid FALSE
coord Coordinate {
point [
6.79318 1.26335 11.2699 ,6.70579 6.2701 10.3871 ,6.70595 6.26095 11.9046 ,6.70626 6.24308 12.1757 ,6.76166 3.06934 14.3378 ,6.70779 6.15539 12.7559 ,6.71409 5.79423 14.2312 ,6.76166 3.06934 14.374 ,6.78398 1.79045 14.3378 ,6.81077 0.255778 12.4707 ,6.81077 0.255778 15.4059 ,6.78398 1.79045 14.897 ,6.78487 1.73912 15.4837
] }
coordIndex [
0 1 2 -1 0 2 3 -1 4 5 6 -1 4 3 5 -1 4 0 3 -1 7 4 6 -1 8 9 0 -1 8 0 4 -1 10 8 11 -1 10 11 12 -1 10 9 8 -1
]
}
}
Shape {
appearance Appearance {
material Material {
ambientIntensity 0.300
shininess 1.000
diffuseColor 0.479 0.485 0.485
transparency 0.000
specularColor 0.320 0.324 0.324
emissiveColor 0.000 0.000 0.000
}
}
geometry IndexedFaceSet {
ccw TRUE
normalPerVertex TRUE
convex TRUE
creaseAngle 0.500
solid FALSE
coord Coordinate {
point [
6.78398 1.79045 14.3378 ,6.76166 3.06934 14.3378 ,6.85485 3.06934 14.3378 ,6.85485 1.79045 14.3378
] }
coordIndex [
0 1 2 -1 3 0 2 -1
]
}
}
Shape {
appearance Appearance {
material Material {
ambientIntensity 0.300
shininess 1.000
diffuseColor 0.479 0.485 0.485
transparency 0.000
specularColor 0.320 0.324 0.324
emissiveColor 0.000 0.000 0.000
}
}
geometry IndexedFaceSet {
ccw TRUE
normalPerVertex TRUE
convex TRUE
creaseAngle 0.500
solid FALSE
coord Coordinate {
point [
7.60744 1.79045 13.7202 ,7.62218 1.79045 13.5705 ,7.62218 3.06934 13.5705 ,7.60744 3.06934 13.7202 ,7.56377 3.06934 13.8642 ,7.56377 1.79045 13.8642 ,7.49287 3.06934 13.9968 ,7.49287 1.79045 13.9968 ,7.39744 1.79045 14.1131 ,7.39744 3.06934 14.1131 ,7.28116 1.79045 14.2085 ,7.28116 3.06934 14.2085 ,7.1485 3.06934 14.2794 ,7.1485 1.79045 14.2794 ,7.00455 1.79045 14.3231 ,7.00455 3.06934 14.3231 ,6.85485 1.79045 14.3378 ,6.85485 3.06934 14.3378
] }
coordIndex [
0 1 2 -1 0 3 4 -1 0 2 3 -1 5 4 6 -1 5 0 4 -1 7 5 6 -1 8 6 9 -1 8 7 6 -1 10 11 12 -1 10 9 11 -1 10 8 9 -1 13 10 12 -1 14 12 15 -1 14 13 12 -1 16 15 17 -1 16 14 15 -1
]
}
}
Shape {
appearance Appearance {
material Material {
ambientIntensity 0.300
shininess 1.000
diffuseColor 0.479 0.485 0.485
transparency 0.000
specularColor 0.320 0.324 0.324
emissiveColor 0.000 0.000 0.000
}
}
geometry IndexedFaceSet {
ccw TRUE
normalPerVertex TRUE
convex TRUE
creaseAngle 0.500
solid FALSE
coord Coordinate {
point [
6.85485 1.79045 14.3378 ,6.78398 1.79045 14.3378 ,6.78398 1.79045 14.897 ,7.00455 1.79045 14.3231 ,7.62218 1.79045 14.897 ,7.1485 1.79045 14.2794 ,7.28116 1.79045 14.2085 ,7.39744 1.79045 14.1131 ,7.49287 1.79045 13.9968 ,7.56377 1.79045 13.8642 ,7.62218 1.79045 13.5705 ,7.60744 1.79045 13.7202
] }
coordIndex [
0 1 2 -1 3 0 2 -1 4 3 2 -1 5 3 4 -1 6 5 4 -1 7 6 4 -1 8 7 4 -1 9 8 4 -1 4 10 11 -1 4 11 9 -1
]
}
}
Shape {
appearance Appearance {
material Material {
ambientIntensity 0.300
shininess 1.000
diffuseColor 0.479 0.485 0.485
transparency 0.000
specularColor 0.320 0.324 0.324
emissiveColor 0.000 0.000 0.000
}
}
geometry IndexedFaceSet {
ccw TRUE
normalPerVertex TRUE
convex TRUE
creaseAngle 0.500
solid FALSE
coord Coordinate {
point [
-7.49287 1.79045 13.9968 ,-7.62218 1.79045 14.897 ,-7.39744 1.79045 14.1131 ,-7.28116 1.79045 14.2085 ,-7.56377 1.79045 13.8642 ,-7.1485 1.79045 14.2794 ,-7.00455 1.79045 14.3231 ,-6.78398 1.79045 14.897 ,-6.85485 1.79045 14.3378 ,-6.78398 1.79045 14.3378 ,-7.62218 1.79045 13.5705 ,-7.60744 1.79045 13.7202
] }
coordIndex [
0 1 2 -1 3 2 1 -1 4 1 0 -1 5 3 1 -1 6 1 7 -1 6 5 1 -1 8 6 7 -1 9 8 7 -1 10 1 11 -1 11 1 4 -1
]
}
}
Shape {
appearance Appearance {
material Material {
ambientIntensity 0.300
shininess 1.000
diffuseColor 0.479 0.485 0.485
transparency 0.000
specularColor 0.320 0.324 0.324
emissiveColor 0.000 0.000 0.000
}
}
geometry IndexedFaceSet {
ccw TRUE
normalPerVertex TRUE
convex TRUE
creaseAngle 0.500
solid FALSE
coord Coordinate {
point [
7.62218 1.79045 13.4426 ,7.61298 1.26335 11.2699 ,7.62218 1.79045 11.1769 ,7.5954 0.255778 12.4707 ,7.62218 1.79045 13.5705 ,7.5954 0.255778 15.2562 ,7.62218 1.79045 14.897 ,7.62152 1.75254 15.3303
] }
coordIndex [
0 1 2 -1 3 0 4 -1 3 1 0 -1 5 6 7 -1 5 4 6 -1 5 3 4 -1
]
}
}
Shape {
appearance Appearance {
material Material {
ambientIntensity 0.300
shininess 1.000
diffuseColor 0.479 0.485 0.485
transparency 0.000
specularColor 0.320 0.324 0.324
emissiveColor 0.000 0.000 0.000
}
}
geometry IndexedFaceSet {
ccw TRUE
normalPerVertex TRUE
convex TRUE
creaseAngle 0.500
solid FALSE
coord Coordinate {
point [
6.78398 1.79045 14.897 ,6.85352 1.73912 15.4837 ,7.11632 1.74063 15.4664 ,6.78487 1.73912 15.4837 ,7.37232 1.74511 15.4152 ,7.62218 1.79045 14.897 ,7.62152 1.75254 15.3303
] }
coordIndex [
0 1 2 -1 0 3 1 -1 4 0 2 -1 5 4 6 -1 5 0 4 -1
]
}
}
Shape {
appearance Appearance {
material Material {
ambientIntensity 0.300
shininess 1.000
diffuseColor 0.479 0.485 0.485
transparency 0.000
specularColor 0.320 0.324 0.324
emissiveColor 0.000 0.000 0.000
}
}
geometry IndexedFaceSet {
ccw TRUE
normalPerVertex TRUE
convex TRUE
creaseAngle 0.500
solid FALSE
coord Coordinate {
point [
6.85352 1.73912 15.4837 ,6.85352 0.255778 15.4059 ,7.10673 0.255778 15.3891 ,7.11632 1.74063 15.4664 ,7.35549 0.255778 15.3389 ,7.37232 1.74511 15.4152 ,7.5954 0.255778 15.2562 ,7.62152 1.75254 15.3303
] }
coordIndex [
0 1 2 -1 3 2 4 -1 3 0 2 -1 5 4 6 -1 5 3 4 -1 7 5 6 -1
]
}
}
Shape {
appearance Appearance {
material Material {
ambientIntensity 0.300
shininess 1.000
diffuseColor 0.479 0.485 0.485
transparency 0.000
specularColor 0.320 0.324 0.324
emissiveColor 0.000 0.000 0.000
}
}
geometry IndexedFaceSet {
ccw TRUE
normalPerVertex TRUE
convex TRUE
creaseAngle 0.500
solid FALSE
coord Coordinate {
point [
6.81077 0.255778 12.4707 ,6.85352 0.255778 15.4059 ,6.81077 0.255778 15.4059 ,7.5954 0.255778 15.2562 ,7.35549 0.255778 15.3389 ,7.10673 0.255778 15.3891 ,7.5954 0.255778 12.4707
] }
coordIndex [
0 1 2 -1 0 3 4 -1 0 4 5 -1 0 5 1 -1 6 3 0 -1
]
}
}
Shape {
appearance Appearance {
material Material {
ambientIntensity 0.300
shininess 1.000
diffuseColor 0.479 0.485 0.485
transparency 0.000
specularColor 0.320 0.324 0.324
emissiveColor 0.000 0.000 0.000
}
}
geometry IndexedFaceSet {
ccw TRUE
normalPerVertex TRUE
convex TRUE
creaseAngle 0.500
solid FALSE
coord Coordinate {
point [
6.81077 0.255778 12.4707 ,7.61298 1.26335 11.2699 ,7.5954 0.255778 12.4707 ,6.79318 1.26335 11.2699
] }
coordIndex [
0 1 2 -1 0 3 1 -1
]
}
}
Shape {
appearance Appearance {
material Material {
ambientIntensity 0.300
shininess 1.000
diffuseColor 0.479 0.485 0.485
transparency 0.000
specularColor 0.320 0.324 0.324
emissiveColor 0.000 0.000 0.000
}
}
geometry IndexedFaceSet {
ccw TRUE
normalPerVertex TRUE
convex TRUE
creaseAngle 0.500
solid FALSE
coord Coordinate {
point [
7.62218 1.79045 11.1769 ,7.61298 1.26335 11.2699 ,6.79318 1.26335 11.2699 ,6.70579 6.2701 10.3871 ,7.659 5.86792 10.458 ,7.85741 1.79045 11.1769
] }
coordIndex [
0 1 2 -1 3 0 2 -1 4 5 0 -1 4 0 3 -1
]
}
}
Shape {
appearance Appearance {
material Material {
ambientIntensity 0.300
shininess 1.000
diffuseColor 0.479 0.485 0.485
transparency 0.000
specularColor 0.320 0.324 0.324
emissiveColor 0.000 0.000 0.000
}
}
geometry IndexedFaceSet {
ccw TRUE
normalPerVertex TRUE
convex TRUE
creaseAngle 0.500
solid FALSE
coord Coordinate {
point [
7.82683 1.79045 -12.6138 ,7.6146 5.84118 -12.6086 ,7.62364 5.87117 -12.1693 ,7.82794 2.94145 -9.79993 ,7.67356 5.86799 -9.85101 ,7.83276 2.94145 -9.54416 ,7.83745 2.94145 -9.28838 ,7.84201 2.94145 -9.0326 ,7.96024 1.79045 -4.68403 ,7.68956 5.86694 -8.98153 ,7.97043 1.79045 3.24686 ,7.659 5.86792 10.458 ,7.85741 1.79045 11.1769
] }
coordIndex [
0 1 2 -1 3 2 4 -1 3 0 2 -1 5 0 3 -1 6 0 5 -1 7 0 6 -1 8 7 9 -1 8 0 7 -1 10 8 9 -1 11 10 9 -1 12 10 11 -1
]
}
}
Shape {
appearance Appearance {
material Material {
ambientIntensity 0.300
shininess 1.000
diffuseColor 0.479 0.485 0.485
transparency 0.000
specularColor 0.320 0.324 0.324
emissiveColor 0.000 0.000 0.000
}
}
geometry IndexedFaceSet {
ccw TRUE
normalPerVertex TRUE
convex TRUE
creaseAngle 0.500
solid FALSE
coord Coordinate {
point [
-6.68859 2.94145 -9.79993 ,-7.83276 2.94145 -9.54416 ,-7.82794 2.94145 -9.79993 ,-6.68859 2.94145 -9.0326 ,-7.83745 2.94145 -9.28838 ,-7.84201 2.94145 -9.0326
] }
coordIndex [
0 1 2 -1 3 4 1 -1 3 5 4 -1 3 1 0 -1
]
}
}
Shape {
appearance Appearance {
material Material {
ambientIntensity 0.300
shininess 1.000
diffuseColor 0.479 0.485 0.485
transparency 0.000
specularColor 0.320 0.324 0.324
emissiveColor 0.000 0.000 0.000
}
}
geometry IndexedFaceSet {
ccw TRUE
normalPerVertex TRUE
convex TRUE
creaseAngle 0.500
solid FALSE
coord Coordinate {
point [
7.83276 2.94145 -9.54416 ,6.68859 2.94145 -9.79993 ,7.82794 2.94145 -9.79993 ,6.68859 2.94145 -9.0326 ,7.83745 2.94145 -9.28838 ,7.84201 2.94145 -9.0326
] }
coordIndex [
0 1 2 -1 0 3 1 -1 4 3 0 -1 5 3 4 -1
]
}
}
Shape {
appearance Appearance {
material Material {
ambientIntensity 0.300
shininess 1.000
diffuseColor 0.479 0.485 0.485
transparency 0.000
specularColor 0.320 0.324 0.324
emissiveColor 0.000 0.000 0.000
}
}
geometry IndexedFaceSet {
ccw TRUE
normalPerVertex TRUE
convex TRUE
creaseAngle 0.500
solid FALSE
coord Coordinate {
point [
-7.87363 1.79045 10.4146 ,-7.85741 1.79045 11.1769 ,-7.659 5.86792 10.458 ,-7.87584 2.302 8.88977 ,-7.72023 5.86436 6.89371 ,-7.88871 1.79045 9.65218 ,-7.90265 1.79045 8.88977 ,-7.88761 2.302 8.19155 ,-7.89842 2.302 7.49331 ,-7.90828 2.302 6.79506
] }
coordIndex [
0 1 2 -1 3 2 4 -1 3 5 0 -1 3 0 2 -1 6 5 3 -1 7 3 4 -1 8 7 4 -1 9 8 4 -1
]
}
}
Shape {
appearance Appearance {
material Material {
ambientIntensity 0.300
shininess 1.000
diffuseColor 0.479 0.485 0.485
transparency 0.000
specularColor 0.320 0.324 0.324
emissiveColor 0.000 0.000 0.000
}
}
geometry IndexedFaceSet {
ccw TRUE
normalPerVertex TRUE
convex TRUE
creaseAngle 0.500
solid FALSE
coord Coordinate {
point [
-7.92746 2.302 5.17685 ,-7.91978 2.302 5.87815 ,-7.73431 5.8635 5.77484 ,-7.93418 2.302 4.47553 ,-7.93993 2.302 3.77421 ,-7.97857 1.79045 -1.68886 ,-7.96674 1.79045 3.77421 ,-7.68956 5.86694 -8.98153 ,-7.93193 1.79045 -7.15174 ,-7.84201 2.94145 -9.0326 ,-7.83745 2.94145 -9.28838 ,-7.83276 2.94145 -9.54416 ,-7.82794 2.94145 -9.79993 ,-7.67356 5.86799 -9.85101 ,-7.62364 5.87117 -12.1693 ,-7.82683 1.79045 -12.6138 ,-7.6146 5.84118 -12.6086
] }
coordIndex [
0 1 2 -1 3 0 2 -1 4 3 2 -1 5 6 4 -1 5 4 2 -1 7 5 2 -1 8 5 7 -1 9 8 7 -1 10 8 9 -1 11 8 10 -1 12 13 14 -1 12 8 11 -1 15 14 16 -1 15 12 14 -1 15 8 12 -1
]
}
}
Shape {
appearance Appearance {
material Material {
ambientIntensity 0.300
shininess 1.000
diffuseColor 0.479 0.485 0.485
transparency 0.000
specularColor 0.320 0.324 0.324
emissiveColor 0.000 0.000 0.000
}
}
geometry IndexedFaceSet {
ccw TRUE
normalPerVertex TRUE
convex TRUE
creaseAngle 0.500
solid FALSE
coord Coordinate {
point [
-7.62218 1.79045 11.1769 ,-7.61298 1.26335 11.2699 ,-6.79318 1.26335 11.2699 ,-6.70579 6.2701 10.3871 ,-7.659 5.86792 10.458 ,-7.85741 1.79045 11.1769
] }
coordIndex [
0 1 2 -1 3 0 2 -1 4 5 0 -1 4 0 3 -1
]
}
}
Shape {
appearance Appearance {
material Material {
ambientIntensity 0.300
shininess 1.000
diffuseColor 0.479 0.485 0.485
transparency 0.000
specularColor 0.320 0.324 0.324
emissiveColor 0.000 0.000 0.000
}
}
geometry IndexedFaceSet {
ccw TRUE
normalPerVertex TRUE
convex TRUE
creaseAngle 0.500
solid FALSE
coord Coordinate {
point [
-6.81077 0.255778 12.4707 ,-7.61298 1.26335 11.2699 ,-6.79318 1.26335 11.2699 ,-7.5954 0.255778 12.4707
] }
coordIndex [
0 1 2 -1 3 1 0 -1
]
}
}
Shape {
appearance Appearance {
material Material {
ambientIntensity 0.300
shininess 1.000
diffuseColor 0.479 0.485 0.485
transparency 0.000
specularColor 0.320 0.324 0.324
emissiveColor 0.000 0.000 0.000
}
}
geometry IndexedFaceSet {
ccw TRUE
normalPerVertex TRUE
convex TRUE
creaseAngle 0.500
solid FALSE
coord Coordinate {
point [
-6.81077 0.255778 12.4707 ,-7.10673 0.255778 15.3891 ,-6.85352 0.255778 15.4059 ,-7.35549 0.255778 15.3389 ,-7.5954 0.255778 15.2562 ,-6.81077 0.255778 15.4059 ,-7.5954 0.255778 12.4707
] }
coordIndex [
0 1 2 -1 0 3 1 -1 0 4 3 -1 0 2 5 -1 6 4 0 -1
]
}
}
Shape {
appearance Appearance {
material Material {
ambientIntensity 0.300
shininess 1.000
diffuseColor 0.479 0.485 0.485
transparency 0.000
specularColor 0.320 0.324 0.324
emissiveColor 0.000 0.000 0.000
}
}
geometry IndexedFaceSet {
ccw TRUE
normalPerVertex TRUE
convex TRUE
creaseAngle 0.500
solid FALSE
coord Coordinate {
point [
-7.37232 1.74511 15.4152 ,-7.5954 0.255778 15.2562 ,-7.35549 0.255778 15.3389 ,-7.62152 1.75254 15.3303 ,-7.11632 1.74063 15.4664 ,-7.10673 0.255778 15.3891 ,-6.85352 1.73912 15.4837 ,-6.85352 0.255778 15.4059
] }
coordIndex [
0 1 2 -1 0 3 1 -1 4 2 5 -1 4 0 2 -1 6 5 7 -1 6 4 5 -1
]
}
}
Shape {
appearance Appearance {
material Material {
ambientIntensity 0.300
shininess 1.000
diffuseColor 0.479 0.485 0.485
transparency 0.000
specularColor 0.320 0.324 0.324
emissiveColor 0.000 0.000 0.000
}
}
geometry IndexedFaceSet {
ccw TRUE
normalPerVertex TRUE
convex TRUE
creaseAngle 0.500
solid FALSE
coord Coordinate {
point [
6.81077 0.255778 15.4059 ,6.78487 1.73912 15.4837 ,6.85352 1.73912 15.4837 ,6.85352 0.255778 15.4059
] }
coordIndex [
0 1 2 -1 0 2 3 -1
]
}
}
Shape {
appearance Appearance {
material Material {
ambientIntensity 0.300
shininess 1.000
diffuseColor 0.479 0.485 0.485
transparency 0.000
specularColor 0.320 0.324 0.324
emissiveColor 0.000 0.000 0.000
}
}
geometry IndexedFaceSet {
ccw TRUE
normalPerVertex TRUE
convex TRUE
creaseAngle 0.500
solid FALSE
coord Coordinate {
point [
-6.81077 0.255778 15.4059 ,-6.85352 1.73912 15.4837 ,-6.78487 1.73912 15.4837 ,-6.85352 0.255778 15.4059
] }
coordIndex [
0 1 2 -1 3 1 0 -1
]
}
}
Shape {
appearance Appearance {
material Material {
ambientIntensity 0.300
shininess 1.000
diffuseColor 0.479 0.485 0.485
transparency 0.000
specularColor 0.320 0.324 0.324
emissiveColor 0.000 0.000 0.000
}
}
geometry IndexedFaceSet {
ccw TRUE
normalPerVertex TRUE
convex TRUE
creaseAngle 0.500
solid FALSE
coord Coordinate {
point [
-6.62985 6.30714 -9.85868 ,-7.62364 5.87117 -12.1693 ,-6.11159 6.52234 -11.1146 ,-6.62978 6.31087 -8.97378 ,-7.67356 5.86799 -9.85101 ,-7.11822 6.11742 5.92757 ,-7.1873 6.08907 5.86528 ,-7.26653 6.0565 5.81402 ,-7.0606 6.14101 5.99882 ,-7.35406 6.02048 5.7757 ,-7.01532 6.15948 6.07695 ,-7.4475 5.98198 5.75191 ,-7.68956 5.86694 -8.98153 ,-6.98281 6.17267 6.16019 ,-6.96342 6.18041 6.24637 ,-7.54407 5.94214 5.7437 ,-6.70579 6.2701 10.3871 ,-6.98228 6.17172 6.50206 ,-6.96394 6.1796 6.42103 ,-7.01013 6.15991 6.57596 ,-7.04667 6.14451 6.64393 ,-7.09224 6.12538 6.70707 ,-7.14815 6.10196 6.76585 ,-7.659 5.86792 10.458 ,-7.21645 6.07343 6.81968 ,-7.30032 6.03846 6.86677 ,-7.6407 5.90222 5.75146 ,-7.39948 5.9972 6.90188 ,-7.50645 5.95279 6.91898 ,-7.61472 5.90795 6.91619 ,-7.72023 5.86436 6.89371 ,-6.10437 6.52234 11.2722 ,-6.95716 6.18271 6.33199 ,-6.70138 6.26293 11.8998 ,-7.73431 5.8635 5.77484 ,-6.70595 6.26095 11.9046
] }
coordIndex [
0 1 2 -1 3 0 2 -1 4 1 0 -1 5 6 3 -1 7 3 6 -1 8 5 3 -1 9 3 7 -1 10 8 3 -1 11 12 3 -1 11 3 9 -1 13 10 3 -1 14 3 2 -1 14 13 3 -1 15 12 11 -1 16 17 18 -1 16 19 17 -1 16 20 19 -1 16 21 20 -1 16 22 21 -1 23 24 22 -1 23 25 24 -1 26 12 15 -1 23 27 25 -1 23 28 27 -1 23 29 28 -1 23 30 29 -1 23 22 16 -1 31 18 32 -1 31 32 14 -1 31 14 2 -1 31 16 18 -1 33 16 31 -1 34 12 26 -1 35 16 33 -1
]
}
}
Shape {
appearance Appearance {
material Material {
ambientIntensity 0.300
shininess 1.000
diffuseColor 0.479 0.485 0.485
transparency 0.000
specularColor 0.320 0.324 0.324
emissiveColor 0.000 0.000 0.000
}
}
geometry IndexedFaceSet {
ccw TRUE
normalPerVertex TRUE
convex TRUE
creaseAngle 0.500
solid FALSE
coord Coordinate {
point [
-6.68859 2.94145 -9.0326 ,-6.62978 6.31087 -8.97378 ,-7.68956 5.86694 -8.98153 ,-7.84201 2.94145 -9.0326
] }
coordIndex [
0 1 2 -1 3 0 2 -1
]
}
}
Shape {
appearance Appearance {
material Material {
ambientIntensity 0.300
shininess 1.000
diffuseColor 0.479 0.485 0.485
transparency 0.000
specularColor 0.320 0.324 0.324
emissiveColor 0.000 0.000 0.000
}
}
geometry IndexedFaceSet {
ccw TRUE
normalPerVertex TRUE
convex TRUE
creaseAngle 0.500
solid FALSE
coord Coordinate {
point [
-6.68859 2.94145 -9.0326 ,-6.62985 6.30714 -9.85868 ,-6.62978 6.31087 -8.97378 ,-6.68859 2.94145 -9.79993
] }
coordIndex [
0 1 2 -1 0 3 1 -1
]
}
}
Shape {
appearance Appearance {
material Material {
ambientIntensity 0.300
shininess 1.000
diffuseColor 0.479 0.485 0.485
transparency 0.000
specularColor 0.320 0.324 0.324
emissiveColor 0.000 0.000 0.000
}
}
geometry IndexedFaceSet {
ccw TRUE
normalPerVertex TRUE
convex TRUE
creaseAngle 0.500
solid FALSE
coord Coordinate {
point [
-6.68859 2.94145 -9.79993 ,-7.82794 2.94145 -9.79993 ,-7.67356 5.86799 -9.85101 ,-6.62985 6.30714 -9.85868
] }
coordIndex [
0 1 2 -1 0 2 3 -1
]
}
}
Shape {
appearance Appearance {
material Material {
ambientIntensity 0.300
shininess 1.000
diffuseColor 0.479 0.485 0.485
transparency 0.000
specularColor 0.320 0.324 0.324
emissiveColor 0.000 0.000 0.000
}
}
geometry IndexedFaceSet {
ccw TRUE
normalPerVertex TRUE
convex TRUE
creaseAngle 0.500
solid FALSE
coord Coordinate {
point [
-8.11595 1.97976 6.18841 ,-8.09758 2.302 6.12891 ,-8.09244 1.99334 6.11544 ,-8.12463 2.302 6.22885 ,-8.12946 1.97196 6.26118 ,-6.95716 6.18271 6.33199 ,-6.95716 2.64879 6.33199 ,-6.96144 2.64632 6.26118 ,-8.13374 2.302 6.33199 ,-8.13374 1.96949 6.33199 ,-6.96342 6.18041 6.24637 ,-6.97496 2.63851 6.18841 ,-6.98281 6.17267 6.16019 ,-6.99847 2.62494 6.11544 ,-7.01532 6.15948 6.07695 ,-7.03232 2.6054 6.04429 ,-7.0606 6.14101 5.99882 ,-7.07626 2.58003 5.97712 ,-7.11822 6.11742 5.92757 ,-7.12947 2.54931 5.916 ,-7.1873 6.08907 5.86528 ,-7.19058 2.51402 5.86279 ,-7.26653 6.0565 5.81402 ,-7.25776 2.47524 5.81885 ,-7.3289 2.43416 5.785 ,-7.35406 6.02048 5.7757 ,-7.40185 2.39205 5.76149 ,-7.4475 5.98198 5.75191 ,-7.47467 2.35 5.74797 ,-7.54407 5.94214 5.7437 ,-7.54545 2.30914 5.7437 ,-7.61623 2.26827 5.74797 ,-7.6407 5.90222 5.75146 ,-7.68905 2.22623 5.76149 ,-7.73431 5.8635 5.77484 ,-7.762 2.18412 5.785 ,-7.83315 2.14304 5.81885 ,-7.91978 2.302 5.87815 ,-7.90032 2.10425 5.86279 ,-7.96143 2.06897 5.916 ,-7.99354 2.302 5.95081 ,-8.01464 2.03825 5.97712 ,-8.05343 2.302 6.03527 ,-8.05859 2.01288 6.04429
] }
coordIndex [
0 1 2 -1 3 1 0 -1 4 3 0 -1 5 6 7 -1 8 3 4 -1 8 4 9 -1 10 7 11 -1 10 5 7 -1 12 11 13 -1 12 10 11 -1 14 13 15 -1 14 12 13 -1 16 15 17 -1 16 14 15 -1 18 17 19 -1 18 16 17 -1 20 19 21 -1 20 18 19 -1 22 21 23 -1 22 23 24 -1 22 20 21 -1 25 24 26 -1 25 22 24 -1 27 26 28 -1 27 25 26 -1 29 28 30 -1 29 30 31 -1 29 27 28 -1 32 31 33 -1 32 29 31 -1 34 32 33 -1 34 33 35 -1 34 35 36 -1 37 36 38 -1 37 34 36 -1 39 37 38 -1 40 37 39 -1 41 40 39 -1 42 40 41 -1 42 41 43 -1 2 42 43 -1 1 42 2 -1
]
}
}
Shape {
appearance Appearance {
material Material {
ambientIntensity 0.300
shininess 1.000
diffuseColor 0.479 0.485 0.485
transparency 0.000
specularColor 0.320 0.324 0.324
emissiveColor 0.000 0.000 0.000
}
}
geometry IndexedFaceSet {
ccw TRUE
normalPerVertex TRUE
convex TRUE
creaseAngle 0.500
solid FALSE
coord Coordinate {
point [
-7.25776 2.47524 6.84512 ,-7.19058 2.51402 5.86279 ,-7.25776 2.47524 5.81885 ,-7.19058 2.51402 6.80118 ,-7.3289 2.43416 6.87897 ,-7.3289 2.43416 5.785 ,-7.40185 2.39205 5.76149 ,-7.40185 2.39205 6.90248 ,-7.47467 2.35 5.74797 ,-7.47467 2.35 6.916 ,-6.96144 2.64632 6.4028 ,-6.95716 2.64879 6.33199 ,-6.96144 2.64632 6.26118 ,-7.54545 2.30914 6.92028 ,-7.54545 2.30914 5.7437 ,-6.97496 2.63851 6.18841 ,-6.97496 2.63851 6.47556 ,-6.99847 2.62494 6.11544 ,-7.61623 2.26827 6.916 ,-7.61623 2.26827 5.74797 ,-7.68905 2.22623 5.76149 ,-7.68905 2.22623 6.90248 ,-7.762 2.18412 5.785 ,-6.99847 2.62494 6.54853 ,-8.12946 1.97196 6.4028 ,-8.11595 1.97976 6.18841 ,-8.12946 1.97196 6.26118 ,-8.13374 1.96949 6.33199 ,-7.03232 2.6054 6.61969 ,-7.03232 2.6054 6.04429 ,-7.762 2.18412 6.87897 ,-8.11595 1.97976 6.47556 ,-8.09244 1.99334 6.11544 ,-7.07626 2.58003 6.68686 ,-7.07626 2.58003 5.97712 ,-7.12947 2.54931 5.916 ,-7.83315 2.14304 6.84512 ,-7.83315 2.14304 5.81885 ,-8.09244 1.99334 6.54853 ,-7.90032 2.10425 6.80118 ,-7.90032 2.10425 5.86279 ,-7.12947 2.54931 6.74797 ,-8.05859 2.01288 6.61969 ,-8.05859 2.01288 6.04429 ,-7.96143 2.06897 6.74797 ,-7.96143 2.06897 5.916 ,-8.01464 2.03825 6.68686 ,-8.01464 2.03825 5.97712
] }
coordIndex [
0 1 2 -1 0 3 1 -1 4 2 5 -1 4 5 6 -1 4 0 2 -1 7 6 8 -1 7 4 6 -1 9 7 8 -1 10 11 12 -1 13 8 14 -1 10 12 15 -1 13 9 8 -1 16 15 17 -1 18 14 19 -1 18 19 20 -1 18 13 14 -1 16 10 15 -1 21 20 22 -1 21 18 20 -1 23 16 17 -1 24 25 26 -1 24 26 27 -1 28 17 29 -1 30 21 22 -1 31 25 24 -1 28 23 17 -1 31 32 25 -1 33 29 34 -1 33 34 35 -1 36 22 37 -1 36 30 22 -1 33 28 29 -1 38 32 31 -1 39 37 40 -1 41 35 1 -1 39 36 37 -1 42 43 32 -1 41 33 35 -1 42 32 38 -1 44 40 45 -1 44 39 40 -1 46 45 47 -1 46 47 43 -1 46 43 42 -1 46 44 45 -1 3 41 1 -1
]
}
}
Shape {
appearance Appearance {
material Material {
ambientIntensity 0.300
shininess 1.000
diffuseColor 0.479 0.485 0.485
transparency 0.000
specularColor 0.320 0.324 0.324
emissiveColor 0.000 0.000 0.000
}
}
geometry IndexedFaceSet {
ccw TRUE
normalPerVertex TRUE
convex TRUE
creaseAngle 0.500
solid FALSE
coord Coordinate {
point [
-6.96394 6.1796 6.42103 ,-6.97496 2.63851 6.47556 ,-6.96144 2.64632 6.4028 ,-6.95716 6.18271 6.33199 ,-6.95716 2.64879 6.33199 ,-8.12946 1.97196 6.4028 ,-8.13374 2.302 6.33199 ,-8.13374 1.96949 6.33199 ,-8.12411 2.302 6.43802 ,-8.11595 1.97976 6.47556 ,-8.09552 2.302 6.54059 ,-8.09244 1.99334 6.54853 ,-8.05859 2.01288 6.61969 ,-8.04891 2.302 6.63632 ,-8.01464 2.03825 6.68686 ,-7.98581 2.302 6.72208 ,-7.96143 2.06897 6.74797 ,-7.90828 2.302 6.79506 ,-7.90032 2.10425 6.80118 ,-7.83315 2.14304 6.84512 ,-7.72023 5.86436 6.89371 ,-7.762 2.18412 6.87897 ,-7.68905 2.22623 6.90248 ,-7.61472 5.90795 6.91619 ,-7.61623 2.26827 6.916 ,-7.54545 2.30914 6.92028 ,-7.50645 5.95279 6.91898 ,-7.47467 2.35 6.916 ,-7.39948 5.9972 6.90188 ,-7.40185 2.39205 6.90248 ,-7.3289 2.43416 6.87897 ,-7.30032 6.03846 6.86677 ,-7.25776 2.47524 6.84512 ,-7.21645 6.07343 6.81968 ,-7.19058 2.51402 6.80118 ,-7.14815 6.10196 6.76585 ,-7.12947 2.54931 6.74797 ,-7.09224 6.12538 6.70707 ,-7.07626 2.58003 6.68686 ,-7.04667 6.14451 6.64393 ,-7.03232 2.6054 6.61969 ,-7.01013 6.15991 6.57596 ,-6.99847 2.62494 6.54853 ,-6.98228 6.17172 6.50206
] }
coordIndex [
0 1 2 -1 3 0 2 -1 3 2 4 -1 5 6 7 -1 8 6 5 -1 9 8 5 -1 10 9 11 -1 10 8 9 -1 12 10 11 -1 13 10 12 -1 14 13 12 -1 15 13 14 -1 16 15 14 -1 17 15 16 -1 18 17 16 -1 19 17 18 -1 20 19 21 -1 20 21 22 -1 20 17 19 -1 23 22 24 -1 23 24 25 -1 23 20 22 -1 26 25 27 -1 26 23 25 -1 28 27 29 -1 28 29 30 -1 28 26 27 -1 31 30 32 -1 31 28 30 -1 33 31 32 -1 33 32 34 -1 35 33 34 -1 35 34 36 -1 37 35 36 -1 37 36 38 -1 39 37 38 -1 39 38 40 -1 41 39 40 -1 41 40 42 -1 43 41 42 -1 43 42 1 -1 0 43 1 -1
]
}
}
Shape {
appearance Appearance {
material Material {
ambientIntensity 0.300
shininess 1.000
diffuseColor 0.479 0.485 0.485
transparency 0.000
specularColor 0.320 0.324 0.324
emissiveColor 0.000 0.000 0.000
}
}
geometry IndexedFaceSet {
ccw TRUE
normalPerVertex TRUE
convex TRUE
creaseAngle 0.500
solid FALSE
coord Coordinate {
point [
-7.93418 2.302 4.47553 ,-7.93993 2.302 3.77421 ,-8.48552 2.302 3.77421 ,-8.46987 2.302 5.47946 ,-7.92746 2.302 5.17685 ,-7.91978 2.302 5.87815 ,-7.99354 2.302 5.95081 ,-8.05343 2.302 6.03527 ,-8.09758 2.302 6.12891 ,-8.12463 2.302 6.22885 ,-8.13374 2.302 6.33199 ,-8.44853 2.302 7.18466 ,-8.12411 2.302 6.43802 ,-8.09552 2.302 6.54059 ,-8.04891 2.302 6.63632 ,-7.98581 2.302 6.72208 ,-7.90828 2.302 6.79506 ,-7.89842 2.302 7.49331 ,-7.88761 2.302 8.19155 ,-8.4215 2.302 8.88977 ,-7.87584 2.302 8.88977
] }
coordIndex [
0 1 2 -1 3 0 2 -1 4 0 3 -1 5 4 3 -1 5 3 6 -1 7 6 3 -1 8 7 3 -1 9 8 3 -1 10 9 3 -1 11 12 10 -1 11 13 12 -1 11 14 13 -1 11 10 3 -1 15 14 11 -1 16 15 11 -1 17 16 11 -1 18 17 11 -1 19 18 11 -1 20 18 19 -1
]
}
}
Shape {
appearance Appearance {
material Material {
ambientIntensity 0.300
shininess 1.000
diffuseColor 0.479 0.485 0.485
transparency 0.000
specularColor 0.320 0.324 0.324
emissiveColor 0.000 0.000 0.000
}
}
geometry IndexedFaceSet {
ccw TRUE
normalPerVertex TRUE
convex TRUE
creaseAngle 0.500
solid FALSE
coord Coordinate {
point [
-7.93993 2.302 3.77421 ,-7.96674 1.79045 3.77421 ,-8.42271 1.79045 3.77421 ,-8.48552 2.302 3.77421
] }
coordIndex [
0 1 2 -1 0 2 3 -1
]
}
}
Shape {
appearance Appearance {
material Material {
ambientIntensity 0.300
shininess 1.000
diffuseColor 0.479 0.485 0.485
transparency 0.000
specularColor 0.320 0.324 0.324
emissiveColor 0.000 0.000 0.000
}
}
geometry IndexedFaceSet {
ccw TRUE
normalPerVertex TRUE
convex TRUE
creaseAngle 0.500
solid FALSE
coord Coordinate {
point [
-8.35868 1.79045 8.88977 ,-7.87584 2.302 8.88977 ,-8.4215 2.302 8.88977 ,-7.90265 1.79045 8.88977
] }
coordIndex [
0 1 2 -1 3 1 0 -1
]
}
}
Shape {
appearance Appearance {
material Material {
ambientIntensity 0.300
shininess 1.000
diffuseColor 0.479 0.485 0.485
transparency 0.000
specularColor 0.320 0.324 0.324
emissiveColor 0.000 0.000 0.000
}
}
geometry IndexedFaceSet {
ccw TRUE
normalPerVertex TRUE
convex TRUE
creaseAngle 0.500
solid FALSE
coord Coordinate {
point [
-6.70655 6.2261 12.3182 ,-6.10437 6.52234 11.2722 ,-6.09625 6.52234 11.355 ,-6.06687 6.52234 11.4658 ,-6.01099 6.52234 11.5894 ,-5.92766 6.52234 11.7123 ,-5.82133 6.52234 11.8225 ,-5.69715 6.52234 11.9133 ,-6.70595 6.26095 11.9046 ,-6.70138 6.26293 11.8998 ,-6.70835 6.12331 12.9208 ,-5.55959 6.52234 11.9817 ,-5.41478 6.52234 12.0247 ,-5.33171 6.52234 12.0374 ,-5.25167 6.52234 12.0415 ,-6.44526 5.80286 14.2308 ,-6.71409 5.79423 14.2312
] }
coordIndex [
0 1 2 -1 0 2 3 -1 0 3 4 -1 0 4 5 -1 0 5 6 -1 0 6 7 -1 0 8 9 -1 0 9 1 -1 10 7 11 -1 10 11 12 -1 10 12 13 -1 10 13 14 -1 10 0 7 -1 15 16 10 -1 15 10 14 -1
]
}
}
Shape {
appearance Appearance {
material Material {
ambientIntensity 0.300
shininess 1.000
diffuseColor 0.479 0.485 0.485
transparency 0.000
specularColor 0.320 0.324 0.324
emissiveColor 0.000 0.000 0.000
}
}
geometry IndexedFaceSet {
ccw TRUE
normalPerVertex TRUE
convex TRUE
creaseAngle 0.500
solid FALSE
coord Coordinate {
point [
5.25167 6.52234 12.0415 ,-5.25167 6.52234 12.0415 ,-6.44526 5.80286 14.2308 ,6.44526 5.80286 14.2308
] }
coordIndex [
0 1 2 -1 0 2 3 -1
]
}
}
Shape {
appearance Appearance {
material Material {
ambientIntensity 0.300
shininess 1.000
diffuseColor 0.479 0.485 0.485
transparency 0.000
specularColor 0.320 0.324 0.324
emissiveColor 0.000 0.000 0.000
}
}
geometry IndexedFaceSet {
ccw TRUE
normalPerVertex TRUE
convex TRUE
creaseAngle 0.500
solid FALSE
coord Coordinate {
point [
-5.55959 6.52234 11.9817 ,-6.10437 6.52234 11.2722 ,-5.69715 6.52234 11.9133 ,-5.25167 6.52234 12.0415 ,-5.41478 6.52234 12.0247 ,-5.33171 6.52234 12.0374 ,6.10437 6.52234 11.2722 ,6.11159 6.52234 -11.1146 ,3.69474 6.52234 -10.9969 ,5.25167 6.52234 12.0415 ,2.69971 6.52234 -10.9969 ,-2.69971 6.52234 -10.9969 ,-5.41027 6.52234 -11.8812 ,-5.52028 6.52234 -11.8601 ,-5.63563 6.52234 -11.8177 ,-5.74779 6.52234 -11.7549 ,6.09408 6.52234 11.3667 ,6.10197 6.52234 11.3137 ,-5.85043 6.52234 -11.6739 ,5.49316 6.52234 12.0048 ,5.37025 6.52234 12.0326 ,6.07748 6.52234 11.4334 ,-6.11159 6.52234 -11.1146 ,-5.93963 6.52234 -11.5775 ,6.04704 6.52234 11.5165 ,-6.01229 6.52234 -11.4692 ,-6.06611 6.52234 -11.3529 ,-6.09898 6.52234 -11.236 ,5.61388 6.52234 11.9582 ,-6.10842 6.52234 -11.1718 ,5.99423 6.52234 11.6181 ,5.72726 6.52234 11.8942 ,-3.69474 6.52234 -10.9969 ,-3.69474 6.52234 -12.0339 ,5.9204 6.52234 11.7212 ,5.83035 6.52234 11.8145 ,2.69971 6.52234 -12.0957 ,-2.69971 6.52234 -12.0957 ,5.41026 6.52234 -11.8812 ,3.69474 6.52234 -12.0339 ,5.53688 6.52234 -11.8553 ,5.47198 6.52234 -11.8717 ,5.65227 6.52234 -11.8099 ,5.76335 6.52234 -11.7442 ,5.86428 6.52234 -11.6608 ,6.10201 6.52234 -11.2194 ,6.07219 6.52234 -11.3358 ,6.0213 6.52234 -11.4527 ,5.95125 6.52234 -11.5624 ,-6.06687 6.52234 11.4658 ,-6.09625 6.52234 11.355 ,-6.01099 6.52234 11.5894 ,-5.92766 6.52234 11.7123 ,-5.82133 6.52234 11.8225
] }
coordIndex [
0 1 2 -1 3 0 4 -1 3 4 5 -1 3 1 0 -1 6 7 8 -1 6 3 9 -1 6 8 10 -1 6 10 11 -1 6 11 1 -1 6 1 3 -1 12 13 14 -1 12 14 15 -1 16 17 6 -1 12 15 18 -1 19 9 20 -1 21 16 6 -1 22 18 23 -1 24 21 6 -1 22 23 25 -1 22 25 26 -1 22 26 27 -1 28 6 9 -1 22 27 29 -1 28 9 19 -1 22 12 18 -1 30 24 6 -1 31 6 28 -1 32 33 12 -1 34 30 6 -1 32 12 22 -1 35 6 31 -1 35 34 6 -1 10 36 37 -1 10 37 11 -1 38 39 8 -1 40 41 38 -1 42 40 38 -1 43 42 38 -1 44 43 38 -1 7 44 38 -1 7 45 46 -1 7 46 47 -1 7 47 48 -1 7 48 44 -1 7 38 8 -1 1 11 32 -1 1 32 22 -1 49 1 50 -1 51 1 49 -1 52 1 51 -1 53 1 52 -1 2 1 53 -1
]
}
}
Shape {
appearance Appearance {
material Material {
ambientIntensity 0.300
shininess 1.000
diffuseColor 0.479 0.485 0.485
transparency 0.000
specularColor 0.320 0.324 0.324
emissiveColor 0.000 0.000 0.000
}
}
geometry IndexedFaceSet {
ccw TRUE
normalPerVertex TRUE
convex TRUE
creaseAngle 0.500
solid FALSE
coord Coordinate {
point [
-3.65329 4.14788 -14.1669 ,-3.68233 5.81131 -14.0742 ,-3.69474 6.52234 -12.0339 ,-3.61839 2.14854 -11.7682 ,-3.69474 6.52234 -10.9969 ,-3.61839 2.14854 -12.6634 ,-3.58089 0 -13.6896 ,-3.58089 0 -12.8514
] }
coordIndex [
0 1 2 -1 3 2 4 -1 3 0 2 -1 3 5 0 -1 6 0 5 -1 7 6 5 -1
]
}
}
Shape {
appearance Appearance {
material Material {
ambientIntensity 0.300
shininess 1.000
diffuseColor 0.479 0.485 0.485
transparency 0.000
specularColor 0.320 0.324 0.324
emissiveColor 0.000 0.000 0.000
}
}
geometry IndexedFaceSet {
ccw TRUE
normalPerVertex TRUE
convex TRUE
creaseAngle 0.500
solid FALSE
coord Coordinate {
point [
-3.61839 2.14854 -11.7682 ,-3.69474 6.52234 -10.9969 ,-2.69971 6.52234 -10.9969 ,-2.77606 2.14854 -11.7682
] }
coordIndex [
0 1 2 -1 0 2 3 -1
]
}
}
Shape {
appearance Appearance {
material Material {
ambientIntensity 0.300
shininess 1.000
diffuseColor 0.479 0.485 0.485
transparency 0.000
specularColor 0.320 0.324 0.324
emissiveColor 0.000 0.000 0.000
}
}
geometry IndexedFaceSet {
ccw TRUE
normalPerVertex TRUE
convex TRUE
creaseAngle 0.500
solid FALSE
coord Coordinate {
point [
-3.61839 2.14854 -12.6634 ,-3.61839 2.14854 -11.7682 ,-2.77606 2.14854 -11.7682 ,-2.77606 2.14854 -12.6634
] }
coordIndex [
0 1 2 -1 0 2 3 -1
]
}
}
Shape {
appearance Appearance {
material Material {
ambientIntensity 0.300
shininess 1.000
diffuseColor 0.479 0.485 0.485
transparency 0.000
specularColor 0.320 0.324 0.324
emissiveColor 0.000 0.000 0.000
}
}
geometry IndexedFaceSet {
ccw TRUE
normalPerVertex TRUE
convex TRUE
creaseAngle 0.500
solid FALSE
coord Coordinate {
point [
-2.81356 0 -12.8514 ,-3.61839 2.14854 -12.6634 ,-2.77606 2.14854 -12.6634 ,-3.58089 0 -12.8514
] }
coordIndex [
0 1 2 -1 3 1 0 -1
]
}
}
Shape {
appearance Appearance {
material Material {
ambientIntensity 0.300
shininess 1.000
diffuseColor 0.479 0.485 0.485
transparency 0.000
specularColor 0.320 0.324 0.324
emissiveColor 0.000 0.000 0.000
}
}
geometry IndexedFaceSet {
ccw TRUE
normalPerVertex TRUE
convex TRUE
creaseAngle 0.500
solid FALSE
coord Coordinate {
point [
-3.47764 0 -13.9256 ,-3.58089 0 -13.9256 ,-3.58089 0 -13.9103 ,-3.58089 0 -13.6896 ,-3.5918 0 -13.9087 ,-3.60272 0 -13.907 ,-3.61363 0 -13.9054 ,-2.81356 0 -13.4979 ,-3.58089 0 -12.8514 ,-1.16283 0 -14.1499 ,-2.81356 0 -12.8514 ,-0.939844 0 -13.6477 ,0.939844 0 -13.6477 ,1.16283 0 -14.1499 ,2.81356 0 -13.4979 ,3.47764 0 -13.9256 ,3.58089 0 -13.9103 ,3.58089 0 -13.9256 ,3.58089 0 -13.6896 ,3.61363 0 -13.9054 ,3.60272 0 -13.907 ,3.5918 0 -13.9087 ,3.58089 0 -12.8514 ,2.81356 0 -12.8514
] }
coordIndex [
0 1 2 -1 3 2 4 -1 3 4 5 -1 3 5 6 -1 3 0 2 -1 7 0 3 -1 8 7 3 -1 9 0 7 -1 10 7 8 -1 11 9 7 -1 12 13 9 -1 12 9 11 -1 14 13 12 -1 15 13 14 -1 16 17 15 -1 18 19 20 -1 18 20 21 -1 18 21 16 -1 18 15 14 -1 18 16 15 -1 22 14 23 -1 22 18 14 -1
]
}
}
Shape {
appearance Appearance {
material Material {
ambientIntensity 0.300
shininess 1.000
diffuseColor 0.479 0.485 0.485
transparency 0.000
specularColor 0.320 0.324 0.324
emissiveColor 0.000 0.000 0.000
}
}
geometry IndexedFaceSet {
ccw TRUE
normalPerVertex TRUE
convex TRUE
creaseAngle 0.500
solid FALSE
coord Coordinate {
point [
-2.77606 2.14854 -11.7682 ,-2.69971 6.52234 -12.0957 ,-2.69971 6.52234 -10.9969 ,-2.70751 6.0755 -13.4037 ,-2.77606 2.14854 -12.6634 ,-2.81356 0 -13.4979 ,-2.81356 0 -12.8514
] }
coordIndex [
0 1 2 -1 0 3 1 -1 0 4 3 -1 5 3 4 -1 6 5 4 -1
]
}
}
Shape {
appearance Appearance {
material Material {
ambientIntensity 0.300
shininess 1.000
diffuseColor 0.479 0.485 0.485
transparency 0.000
specularColor 0.320 0.324 0.324
emissiveColor 0.000 0.000 0.000
}
}
geometry IndexedFaceSet {
ccw TRUE
normalPerVertex TRUE
convex TRUE
creaseAngle 0.500
solid FALSE
coord Coordinate {
point [
6.76765 5.83543 -13.3912 ,5.41026 6.52234 -11.8812 ,3.69474 6.52234 -12.0339 ,3.68233 5.81131 -14.0742
] }
coordIndex [
0 1 2 -1 3 0 2 -1
]
}
}
Shape {
appearance Appearance {
material Material {
ambientIntensity 0.300
shininess 1.000
diffuseColor 0.479 0.485 0.485
transparency 0.000
specularColor 0.320 0.324 0.324
emissiveColor 0.000 0.000 0.000
}
}
geometry IndexedFaceSet {
ccw TRUE
normalPerVertex TRUE
convex TRUE
creaseAngle 0.500
solid FALSE
coord Coordinate {
point [
0.301611 6.06431 -13.5586 ,2.70751 6.0755 -13.4037 ,2.69971 6.52234 -12.0957 ,-2.69971 6.52234 -12.0957 ,-1.20568 6.06635 -13.5295 ,-2.70751 6.0755 -13.4037
] }
coordIndex [
0 1 2 -1 3 4 0 -1 3 0 2 -1 5 4 3 -1
]
}
}
Shape {
appearance Appearance {
material Material {
ambientIntensity 0.300
shininess 1.000
diffuseColor 0.479 0.485 0.485
transparency 0.000
specularColor 0.320 0.324 0.324
emissiveColor 0.000 0.000 0.000
}
}
geometry IndexedFaceSet {
ccw TRUE
normalPerVertex TRUE
convex TRUE
creaseAngle 0.500
solid FALSE
coord Coordinate {
point [
-6.76765 5.83543 -13.3912 ,-3.69474 6.52234 -12.0339 ,-5.41027 6.52234 -11.8812 ,-3.68233 5.81131 -14.0742
] }
coordIndex [
0 1 2 -1 0 3 1 -1
]
}
}
Shape {
appearance Appearance {
material Material {
ambientIntensity 0.300
shininess 1.000
diffuseColor 0.479 0.485 0.485
transparency 0.000
specularColor 0.320 0.324 0.324
emissiveColor 0.000 0.000 0.000
}
}
geometry IndexedFaceSet {
ccw TRUE
normalPerVertex TRUE
convex TRUE
creaseAngle 0.500
solid FALSE
coord Coordinate {
point [
3.65329 4.14788 -14.1669 ,3.68233 5.81131 -14.0742 ,3.69474 6.52234 -12.0339 ,3.61839 2.14854 -11.7682 ,3.69474 6.52234 -10.9969 ,3.61839 2.14854 -12.6634 ,3.58089 0 -13.6896 ,3.58089 0 -12.8514
] }
coordIndex [
0 1 2 -1 3 2 4 -1 3 0 2 -1 3 5 0 -1 6 0 5 -1 7 6 5 -1
]
}
}
Shape {
appearance Appearance {
material Material {
ambientIntensity 0.300
shininess 1.000
diffuseColor 0.479 0.485 0.485
transparency 0.000
specularColor 0.320 0.324 0.324
emissiveColor 0.000 0.000 0.000
}
}
geometry IndexedFaceSet {
ccw TRUE
normalPerVertex TRUE
convex TRUE
creaseAngle 0.500
solid FALSE
coord Coordinate {
point [
6.76765 5.83543 -13.3912 ,3.65329 4.14788 -14.1669 ,3.68233 5.81131 -14.0742 ,4.8459 1.79045 -14.0815 ,3.67183 1.79045 -14.289 ,6.00847 1.79045 -13.8171 ,7.1568 1.79045 -13.4964 ,7.09501 5.82301 -13.2943
] }
coordIndex [
0 1 2 -1 3 4 1 -1 5 1 0 -1 5 3 1 -1 6 0 7 -1 6 5 0 -1
]
}
}
Shape {
appearance Appearance {
material Material {
ambientIntensity 0.300
shininess 1.000
diffuseColor 0.479 0.485 0.485
transparency 0.000
specularColor 0.320 0.324 0.324
emissiveColor 0.000 0.000 0.000
}
}
geometry IndexedFaceSet {
ccw TRUE
normalPerVertex TRUE
convex TRUE
creaseAngle 0.500
solid FALSE
coord Coordinate {
point [
-7.1568 1.79045 -13.4964 ,-7.09501 5.82301 -13.2943 ,-6.76765 5.83543 -13.3912 ,-6.00847 1.79045 -13.8171 ,-3.65329 4.14788 -14.1669 ,-3.68233 5.81131 -14.0742 ,-4.8459 1.79045 -14.0815 ,-3.67183 1.79045 -14.289
] }
coordIndex [
0 1 2 -1 3 0 2 -1 4 2 5 -1 4 3 2 -1 6 3 4 -1 7 6 4 -1
]
}
}
Shape {
appearance Appearance {
material Material {
ambientIntensity 0.300
shininess 1.000
diffuseColor 0.479 0.485 0.485
transparency 0.000
specularColor 0.320 0.324 0.324
emissiveColor 0.000 0.000 0.000
}
}
geometry IndexedFaceSet {
ccw TRUE
normalPerVertex TRUE
convex TRUE
creaseAngle 0.500
solid FALSE
coord Coordinate {
point [
7.6146 5.84118 -12.6086 ,7.62364 5.87117 -12.1693 ,6.11159 6.52234 -11.1146 ,6.10201 6.52234 -11.2194 ,6.07219 6.52234 -11.3358 ,6.0213 6.52234 -11.4527 ,5.95125 6.52234 -11.5624 ,5.86428 6.52234 -11.6608 ,7.59068 5.82357 -12.7809 ,7.60781 5.83145 -12.6954 ,7.54902 5.81537 -12.8977 ,7.48813 5.81051 -13.0059 ,5.76335 6.52234 -11.7442 ,7.40977 5.80884 -13.1022 ,7.31623 5.81032 -13.1839 ,7.21027 5.815 -13.2486 ,7.09501 5.82301 -13.2943 ,5.65227 6.52234 -11.8099 ,5.53688 6.52234 -11.8553 ,5.47198 6.52234 -11.8717 ,5.41026 6.52234 -11.8812 ,6.76765 5.83543 -13.3912
] }
coordIndex [
0 1 2 -1 0 2 3 -1 0 3 4 -1 0 4 5 -1 0 5 6 -1 0 6 7 -1 8 9 0 -1 8 0 7 -1 10 8 7 -1 11 7 12 -1 11 10 7 -1 13 11 12 -1 14 13 12 -1 15 14 12 -1 16 12 17 -1 16 17 18 -1 16 18 19 -1 16 19 20 -1 16 15 12 -1 21 16 20 -1
]
}
}
Shape {
appearance Appearance {
material Material {
ambientIntensity 0.300
shininess 1.000
diffuseColor 0.479 0.485 0.485
transparency 0.000
specularColor 0.320 0.324 0.324
emissiveColor 0.000 0.000 0.000
}
}
geometry IndexedFaceSet {
ccw TRUE
normalPerVertex TRUE
convex TRUE
creaseAngle 0.500
solid FALSE
coord Coordinate {
point [
6.70579 6.2701 10.3871 ,6.70595 6.26095 11.9046 ,6.70138 6.26293 11.8998 ,6.10437 6.52234 11.2722 ,6.62978 6.31087 -8.97378 ,7.659 5.86792 10.458 ,7.68956 5.86694 -8.98153 ,6.11159 6.52234 -11.1146 ,6.62985 6.30714 -9.85868 ,7.62364 5.87117 -12.1693 ,7.67356 5.86799 -9.85101
] }
coordIndex [
0 1 2 -1 0 2 3 -1 4 5 0 -1 4 0 3 -1 6 5 4 -1 7 8 4 -1 7 4 3 -1 9 10 8 -1 9 8 7 -1
]
}
}
Shape {
appearance Appearance {
material Material {
ambientIntensity 0.300
shininess 1.000
diffuseColor 0.479 0.485 0.485
transparency 0.000
specularColor 0.320 0.324 0.324
emissiveColor 0.000 0.000 0.000
}
}
geometry IndexedFaceSet {
ccw TRUE
normalPerVertex TRUE
convex TRUE
creaseAngle 0.500
solid FALSE
coord Coordinate {
point [
6.68859 2.94145 -9.0326 ,6.62978 6.31087 -8.97378 ,6.62985 6.30714 -9.85868 ,6.68859 2.94145 -9.79993
] }
coordIndex [
0 1 2 -1 3 0 2 -1
]
}
}
Shape {
appearance Appearance {
material Material {
ambientIntensity 0.300
shininess 1.000
diffuseColor 0.479 0.485 0.485
transparency 0.000
specularColor 0.320 0.324 0.324
emissiveColor 0.000 0.000 0.000
}
}
geometry IndexedFaceSet {
ccw TRUE
normalPerVertex TRUE
convex TRUE
creaseAngle 0.500
solid FALSE
coord Coordinate {
point [
6.68859 2.94145 -9.0326 ,7.84201 2.94145 -9.0326 ,7.68956 5.86694 -8.98153 ,6.62978 6.31087 -8.97378
] }
coordIndex [
0 1 2 -1 0 2 3 -1
]
}
}
Shape {
appearance Appearance {
material Material {
ambientIntensity 0.300
shininess 1.000
diffuseColor 0.479 0.485 0.485
transparency 0.000
specularColor 0.320 0.324 0.324
emissiveColor 0.000 0.000 0.000
}
}
geometry IndexedFaceSet {
ccw TRUE
normalPerVertex TRUE
convex TRUE
creaseAngle 0.500
solid FALSE
coord Coordinate {
point [
6.68859 2.94145 -9.79993 ,6.62985 6.30714 -9.85868 ,7.67356 5.86799 -9.85101 ,7.82794 2.94145 -9.79993
] }
coordIndex [
0 1 2 -1 3 0 2 -1
]
}
}
Shape {
appearance Appearance {
material Material {
ambientIntensity 0.300
shininess 1.000
diffuseColor 0.479 0.485 0.485
transparency 0.000
specularColor 0.320 0.324 0.324
emissiveColor 0.000 0.000 0.000
}
}
geometry IndexedFaceSet {
ccw TRUE
normalPerVertex TRUE
convex TRUE
creaseAngle 0.500
solid FALSE
coord Coordinate {
point [
6.70779 6.15539 12.7559 ,5.25167 6.52234 12.0415 ,5.37025 6.52234 12.0326 ,5.49316 6.52234 12.0048 ,5.61388 6.52234 11.9582 ,5.72726 6.52234 11.8942 ,5.83035 6.52234 11.8145 ,6.70626 6.24308 12.1757 ,5.9204 6.52234 11.7212 ,5.99423 6.52234 11.6181 ,6.04704 6.52234 11.5165 ,6.07748 6.52234 11.4334 ,6.09408 6.52234 11.3667 ,6.10197 6.52234 11.3137 ,6.10437 6.52234 11.2722 ,6.44526 5.80286 14.2308 ,6.70138 6.26293 11.8998 ,6.70595 6.26095 11.9046 ,6.71409 5.79423 14.2312
] }
coordIndex [
0 1 2 -1 0 2 3 -1 0 3 4 -1 0 4 5 -1 0 5 6 -1 7 6 8 -1 7 8 9 -1 7 9 10 -1 7 10 11 -1 7 11 12 -1 7 12 13 -1 7 13 14 -1 7 0 6 -1 15 1 0 -1 16 7 14 -1 17 7 16 -1 18 15 0 -1
]
}
}
Shape {
appearance Appearance {
material Material {
ambientIntensity 0.300
shininess 1.000
diffuseColor 0.479 0.485 0.485
transparency 0.000
specularColor 0.320 0.324 0.324
emissiveColor 0.000 0.000 0.000
}
}
geometry IndexedFaceSet {
ccw TRUE
normalPerVertex TRUE
convex TRUE
creaseAngle 0.500
solid FALSE
coord Coordinate {
point [
7.1568 1.79045 -13.4964 ,7.09501 5.82301 -13.2943 ,7.21027 5.815 -13.2486 ,7.31324 1.79045 -13.4328 ,7.31623 5.81032 -13.1839 ,7.45591 1.79045 -13.3425 ,7.40977 5.80884 -13.1022 ,7.58027 1.79045 -13.2283 ,7.48813 5.81051 -13.0059 ,7.68238 1.79045 -13.0938 ,7.75898 1.79045 -12.9433 ,7.54902 5.81537 -12.8977 ,7.80764 1.79045 -12.7816 ,7.59068 5.82357 -12.7809 ,7.82683 1.79045 -12.6138 ,7.60781 5.83145 -12.6954 ,7.6146 5.84118 -12.6086
] }
coordIndex [
0 1 2 -1 3 2 4 -1 3 0 2 -1 5 4 6 -1 5 3 4 -1 7 6 8 -1 7 5 6 -1 9 7 8 -1 10 8 11 -1 10 9 8 -1 12 11 13 -1 12 10 11 -1 14 13 15 -1 14 15 16 -1 14 12 13 -1
]
}
}
Shape {
appearance Appearance {
material Material {
ambientIntensity 0.300
shininess 1.000
diffuseColor 0.479 0.485 0.485
transparency 0.000
specularColor 0.320 0.324 0.324
emissiveColor 0.000 0.000 0.000
}
}
geometry IndexedFaceSet {
ccw TRUE
normalPerVertex TRUE
convex TRUE
creaseAngle 0.500
solid FALSE
coord Coordinate {
point [
3.63716 1.01629 -14.0605 ,3.71773 0.997534 -14.5916 ,3.71773 0.485978 -14.5916 ,3.61363 0 -13.9054 ,3.58089 0 -13.6896 ,3.64325 1.79045 -14.1006 ,3.65329 4.14788 -14.1669 ,3.67183 1.79045 -14.289
] }
coordIndex [
0 1 2 -1 0 2 3 -1 0 3 4 -1 5 0 4 -1 6 7 5 -1 4 6 5 -1
]
}
}
Shape {
appearance Appearance {
material Material {
ambientIntensity 0.300
shininess 1.000
diffuseColor 0.479 0.485 0.485
transparency 0.000
specularColor 0.320 0.324 0.324
emissiveColor 0.000 0.000 0.000
}
}
geometry IndexedFaceSet {
ccw TRUE
normalPerVertex TRUE
convex TRUE
creaseAngle 0.500
solid FALSE
coord Coordinate {
point [
1.21851 1.79045 -14.3449 ,3.63716 1.01629 -14.0605 ,1.21647 1.01629 -14.3043 ,3.64325 1.79045 -14.1006 ,-1.21851 1.79045 -14.3449 ,-1.21647 1.01629 -14.3043 ,-3.64325 1.79045 -14.1006 ,-3.63716 1.01629 -14.0605
] }
coordIndex [
0 1 2 -1 0 3 1 -1 4 2 5 -1 4 0 2 -1 6 5 7 -1 6 4 5 -1
]
}
}
Shape {
appearance Appearance {
material Material {
ambientIntensity 0.300
shininess 1.000
diffuseColor 0.479 0.485 0.485
transparency 0.000
specularColor 0.320 0.324 0.324
emissiveColor 0.000 0.000 0.000
}
}
geometry IndexedFaceSet {
ccw TRUE
normalPerVertex TRUE
convex TRUE
creaseAngle 0.500
solid FALSE
coord Coordinate {
point [
-3.63716 1.01629 -14.0605 ,-3.61363 0 -13.9054 ,-3.58089 0 -13.6896 ,-3.71773 0.485978 -14.5916 ,-3.71773 0.997534 -14.5916 ,-3.64325 1.79045 -14.1006 ,-3.65329 4.14788 -14.1669 ,-3.67183 1.79045 -14.289
] }
coordIndex [
0 1 2 -1 0 3 1 -1 0 4 3 -1 5 0 2 -1 6 7 5 -1 2 6 5 -1
]
}
}
Shape {
appearance Appearance {
material Material {
ambientIntensity 0.300
shininess 1.000
diffuseColor 0.479 0.485 0.485
transparency 0.000
specularColor 0.320 0.324 0.324
emissiveColor 0.000 0.000 0.000
}
}
geometry IndexedFaceSet {
ccw TRUE
normalPerVertex TRUE
convex TRUE
creaseAngle 0.500
solid FALSE
coord Coordinate {
point [
3.58089 0.0105879 -13.9256 ,3.61363 0 -13.9054 ,3.60272 0 -13.907 ,3.5918 0 -13.9087 ,3.58089 0 -13.9103 ,3.71773 0.485978 -14.5916 ,3.47764 0 -13.9256 ,1.24342 0.485978 -14.8408 ,1.16283 0 -14.1499 ,-1.24342 0.485978 -14.8408 ,-1.16283 0 -14.1499 ,-3.47764 0 -13.9256 ,-3.58089 0.0105879 -13.9256 ,-3.58089 0 -13.9103 ,-3.5918 0 -13.9087 ,-3.60272 0 -13.907 ,-3.61363 0 -13.9054 ,-3.71773 0.485978 -14.5916
] }
coordIndex [
0 1 2 -1 0 2 3 -1 0 3 4 -1 5 0 6 -1 5 1 0 -1 7 6 8 -1 7 5 6 -1 9 8 10 -1 9 7 8 -1 11 9 10 -1 12 13 14 -1 15 12 14 -1 16 12 15 -1 17 11 12 -1 17 9 11 -1 17 12 16 -1
]
}
}
Shape {
appearance Appearance {
material Material {
ambientIntensity 0.300
shininess 1.000
diffuseColor 0.479 0.485 0.485
transparency 0.000
specularColor 0.320 0.324 0.324
emissiveColor 0.000 0.000 0.000
}
}
geometry IndexedFaceSet {
ccw TRUE
normalPerVertex TRUE
convex TRUE
creaseAngle 0.500
solid FALSE
coord Coordinate {
point [
-3.58089 0 -13.9103 ,-3.58089 0 -13.9256 ,-3.58089 0.0105879 -13.9256
] }
coordIndex [
0 1 2 -1
]
}
}
Shape {
appearance Appearance {
material Material {
ambientIntensity 0.300
shininess 1.000
diffuseColor 0.479 0.485 0.485
transparency 0.000
specularColor 0.320 0.324 0.324
emissiveColor 0.000 0.000 0.000
}
}
geometry IndexedFaceSet {
ccw TRUE
normalPerVertex TRUE
convex TRUE
creaseAngle 0.500
solid FALSE
coord Coordinate {
point [
-3.58089 0.0105879 -13.9256 ,-3.58089 0 -13.9256 ,-3.47764 0 -13.9256
] }
coordIndex [
0 1 2 -1
]
}
}
Shape {
appearance Appearance {
material Material {
ambientIntensity 0.300
shininess 1.000
diffuseColor 0.479 0.485 0.485
transparency 0.000
specularColor 0.320 0.324 0.324
emissiveColor 0.000 0.000 0.000
}
}
geometry IndexedFaceSet {
ccw TRUE
normalPerVertex TRUE
convex TRUE
creaseAngle 0.500
solid FALSE
coord Coordinate {
point [
3.58089 0.0105879 -13.9256 ,3.58089 0 -13.9256 ,3.47764 0 -13.9256
] }
coordIndex [
0 1 2 -1
]
}
}
Shape {
appearance Appearance {
material Material {
ambientIntensity 0.300
shininess 1.000
diffuseColor 0.479 0.485 0.485
transparency 0.000
specularColor 0.320 0.324 0.324
emissiveColor 0.000 0.000 0.000
}
}
geometry IndexedFaceSet {
ccw TRUE
normalPerVertex TRUE
convex TRUE
creaseAngle 0.500
solid FALSE
coord Coordinate {
point [
3.58089 0 -13.9103 ,3.58089 0 -13.9256 ,3.58089 0.0105879 -13.9256
] }
coordIndex [
0 1 2 -1
]
}
}
Shape {
appearance Appearance {
material Material {
ambientIntensity 0.300
shininess 1.000
diffuseColor 0.479 0.485 0.485
transparency 0.000
specularColor 0.320 0.324 0.324
emissiveColor 0.000 0.000 0.000
}
}
geometry IndexedFaceSet {
ccw TRUE
normalPerVertex TRUE
convex TRUE
creaseAngle 0.500
solid FALSE
coord Coordinate {
point [
3.71773 0.997534 -14.5916 ,3.71773 0.485978 -14.5916 ,1.24342 0.485978 -14.8408 ,1.24342 0.997534 -14.8408 ,-1.24342 0.997534 -14.8408 ,-1.24342 0.485978 -14.8408 ,-3.71773 0.997534 -14.5916 ,-3.71773 0.485978 -14.5916
] }
coordIndex [
0 1 2 -1 3 0 2 -1 4 2 5 -1 4 3 2 -1 6 5 7 -1 6 4 5 -1
]
}
}
Shape {
appearance Appearance {
material Material {
ambientIntensity 0.300
shininess 1.000
diffuseColor 0.479 0.485 0.485
transparency 0.000
specularColor 0.320 0.324 0.324
emissiveColor 0.000 0.000 0.000
}
}
geometry IndexedFaceSet {
ccw TRUE
normalPerVertex TRUE
convex TRUE
creaseAngle 0.500
solid FALSE
coord Coordinate {
point [
-1.24342 0.997534 -14.8408 ,-3.71773 0.997534 -14.5916 ,-3.63716 1.01629 -14.0605 ,-1.21647 1.01629 -14.3043 ,1.24342 0.997534 -14.8408 ,1.21647 1.01629 -14.3043 ,3.71773 0.997534 -14.5916 ,3.63716 1.01629 -14.0605
] }
coordIndex [
0 1 2 -1 0 2 3 -1 4 3 5 -1 4 0 3 -1 6 5 7 -1 6 4 5 -1
]
}
}
Shape {
appearance Appearance {
material Material {
ambientIntensity 0.300
shininess 1.000
diffuseColor 0.479 0.485 0.485
transparency 0.000
specularColor 0.320 0.324 0.324
emissiveColor 0.000 0.000 0.000
}
}
geometry IndexedFaceSet {
ccw TRUE
normalPerVertex TRUE
convex TRUE
creaseAngle 0.500
solid FALSE
coord Coordinate {
point [
-7.82683 1.79045 -12.6138 ,-7.6146 5.84118 -12.6086 ,-7.60185 5.82791 -12.7317 ,-7.80764 1.79045 -12.7816 ,-7.5684 5.8183 -12.851 ,-7.75898 1.79045 -12.9433 ,-7.51516 5.8121 -12.9631 ,-7.68238 1.79045 -13.0938 ,-7.44367 5.80914 -13.0646 ,-7.58027 1.79045 -13.2283 ,-7.35601 5.80934 -13.1526 ,-7.45591 1.79045 -13.3425 ,-7.31324 1.79045 -13.4328 ,-7.25475 5.8127 -13.2244 ,-7.1568 1.79045 -13.4964 ,-7.17694 5.81702 -13.2642 ,-7.09501 5.82301 -13.2943
] }
coordIndex [
0 1 2 -1 3 2 4 -1 3 0 2 -1 5 4 6 -1 5 3 4 -1 7 6 8 -1 7 5 6 -1 9 8 10 -1 9 7 8 -1 11 9 10 -1 12 10 13 -1 12 11 10 -1 14 13 15 -1 14 15 16 -1 14 12 13 -1
]
}
}
Shape {
appearance Appearance {
material Material {
ambientIntensity 0.300
shininess 1.000
diffuseColor 0.479 0.485 0.485
transparency 0.000
specularColor 0.320 0.324 0.324
emissiveColor 0.000 0.000 0.000
}
}
geometry IndexedFaceSet {
ccw TRUE
normalPerVertex TRUE
convex TRUE
creaseAngle 0.500
solid FALSE
coord Coordinate {
point [
-7.09501 5.82301 -13.2943 ,-6.76765 5.83543 -13.3912 ,-5.41027 6.52234 -11.8812 ,-5.52028 6.52234 -11.8601 ,-5.63563 6.52234 -11.8177 ,-5.74779 6.52234 -11.7549 ,-7.17694 5.81702 -13.2642 ,-7.25475 5.8127 -13.2244 ,-7.35601 5.80934 -13.1526 ,-7.44367 5.80914 -13.0646 ,-5.85043 6.52234 -11.6739 ,-7.51516 5.8121 -12.9631 ,-7.5684 5.8183 -12.851 ,-7.6146 5.84118 -12.6086 ,-7.60185 5.82791 -12.7317 ,-5.93963 6.52234 -11.5775 ,-6.01229 6.52234 -11.4692 ,-6.06611 6.52234 -11.3529 ,-6.09898 6.52234 -11.236 ,-6.10842 6.52234 -11.1718 ,-6.11159 6.52234 -11.1146 ,-7.62364 5.87117 -12.1693
] }
coordIndex [
0 1 2 -1 0 2 3 -1 0 3 4 -1 0 4 5 -1 6 0 5 -1 7 6 5 -1 8 7 5 -1 9 5 10 -1 9 8 5 -1 11 9 10 -1 12 11 10 -1 13 14 12 -1 13 10 15 -1 13 15 16 -1 13 16 17 -1 13 17 18 -1 13 18 19 -1 13 19 20 -1 13 12 10 -1 21 13 20 -1
]
}
}
Shape {
appearance Appearance {
material Material {
ambientIntensity 0.300
shininess 1.000
diffuseColor 0.479 0.485 0.485
transparency 0.000
specularColor 0.320 0.324 0.324
emissiveColor 0.000 0.000 0.000
}
}
geometry IndexedFaceSet {
ccw TRUE
normalPerVertex TRUE
convex TRUE
creaseAngle 0.500
solid FALSE
coord Coordinate {
point [
2.81356 0 -12.8514 ,3.61839 2.14854 -12.6634 ,2.77606 2.14854 -12.6634 ,3.58089 0 -12.8514
] }
coordIndex [
0 1 2 -1 3 1 0 -1
]
}
}
Shape {
appearance Appearance {
material Material {
ambientIntensity 0.300
shininess 1.000
diffuseColor 0.479 0.485 0.485
transparency 0.000
specularColor 0.320 0.324 0.324
emissiveColor 0.000 0.000 0.000
}
}
geometry IndexedFaceSet {
ccw TRUE
normalPerVertex TRUE
convex TRUE
creaseAngle 0.500
solid FALSE
coord Coordinate {
point [
3.61839 2.14854 -12.6634 ,3.61839 2.14854 -11.7682 ,2.77606 2.14854 -11.7682 ,2.77606 2.14854 -12.6634
] }
coordIndex [
0 1 2 -1 0 2 3 -1
]
}
}
Shape {
appearance Appearance {
material Material {
ambientIntensity 0.300
shininess 1.000
diffuseColor 0.479 0.485 0.485
transparency 0.000
specularColor 0.320 0.324 0.324
emissiveColor 0.000 0.000 0.000
}
}
geometry IndexedFaceSet {
ccw TRUE
normalPerVertex TRUE
convex TRUE
creaseAngle 0.500
solid FALSE
coord Coordinate {
point [
3.61839 2.14854 -11.7682 ,3.69474 6.52234 -10.9969 ,2.69971 6.52234 -10.9969 ,2.77606 2.14854 -11.7682
] }
coordIndex [
0 1 2 -1 0 2 3 -1
]
}
}
Shape {
appearance Appearance {
material Material {
ambientIntensity 0.300
shininess 1.000
diffuseColor 0.479 0.485 0.485
transparency 0.000
specularColor 0.320 0.324 0.324
emissiveColor 0.000 0.000 0.000
}
}
geometry IndexedFaceSet {
ccw TRUE
normalPerVertex TRUE
convex TRUE
creaseAngle 0.500
solid FALSE
coord Coordinate {
point [
2.77606 2.14854 -11.7682 ,2.69971 6.52234 -12.0957 ,2.69971 6.52234 -10.9969 ,2.70751 6.0755 -13.4037 ,2.77606 2.14854 -12.6634 ,2.81356 0 -13.4979 ,2.81356 0 -12.8514
] }
coordIndex [
0 1 2 -1 0 3 1 -1 0 4 3 -1 5 3 4 -1 6 5 4 -1
]
}
}
Shape {
appearance Appearance {
material Material {
ambientIntensity 0.300
shininess 1.000
diffuseColor 0.479 0.485 0.485
transparency 0.000
specularColor 0.320 0.324 0.324
emissiveColor 0.000 0.000 0.000
}
}
geometry IndexedFaceSet {
ccw TRUE
normalPerVertex TRUE
convex TRUE
creaseAngle 0.500
solid FALSE
coord Coordinate {
point [
-2.81356 0 -13.4979 ,-2.70751 6.0755 -13.4037 ,-1.20568 6.06635 -13.5295 ,-0.939844 0 -13.6477 ,0.301611 6.06431 -13.5586 ,0.939844 0 -13.6477 ,2.70751 6.0755 -13.4037 ,2.81356 0 -13.4979
] }
coordIndex [
0 1 2 -1 3 2 4 -1 3 0 2 -1 5 4 6 -1 5 3 4 -1 7 5 6 -1
]
}
}
Shape {
appearance Appearance {
material Material {
ambientIntensity 0.300
shininess 1.000
diffuseColor 0.479 0.485 0.485
transparency 0.000
specularColor 0.320 0.324 0.324
emissiveColor 0.000 0.000 0.000
}
}
geometry IndexedFaceSet {
ccw TRUE
normalPerVertex TRUE
convex TRUE
creaseAngle 0.500
solid FALSE
coord Coordinate {
point [
7.62218 1.79045 13.4426 ,7.62218 1.79045 13.5705 ,7.62218 3.06934 13.5705 ,7.62218 3.06934 13.4426
] }
coordIndex [
0 1 2 -1 0 2 3 -1
]
}
}
Shape {
appearance Appearance {
material Material {
ambientIntensity 0.300
shininess 1.000
diffuseColor 0.479 0.485 0.485
transparency 0.000
specularColor 0.320 0.324 0.324
emissiveColor 0.000 0.000 0.000
}
}
geometry IndexedFaceSet {
ccw TRUE
normalPerVertex TRUE
convex TRUE
creaseAngle 0.500
solid FALSE
coord Coordinate {
point [
-7.00455 1.79045 14.3231 ,-6.85485 1.79045 14.3378 ,-6.85485 3.06934 14.3378 ,-7.00455 3.06934 14.3231 ,-7.1485 3.06934 14.2794 ,-7.1485 1.79045 14.2794 ,-7.28116 1.79045 14.2085 ,-7.28116 3.06934 14.2085 ,-7.39744 3.06934 14.1131 ,-7.39744 1.79045 14.1131 ,-7.49287 3.06934 13.9968 ,-7.49287 1.79045 13.9968 ,-7.56377 1.79045 13.8642 ,-7.56377 3.06934 13.8642 ,-7.60744 1.79045 13.7202 ,-7.60744 3.06934 13.7202 ,-7.62218 3.06934 13.5705 ,-7.62218 1.79045 13.5705
] }
coordIndex [
0 1 2 -1 0 3 4 -1 0 2 3 -1 5 0 4 -1 6 7 8 -1 6 4 7 -1 6 5 4 -1 9 8 10 -1 9 6 8 -1 11 9 10 -1 12 10 13 -1 12 11 10 -1 14 15 16 -1 14 13 15 -1 14 12 13 -1 17 14 16 -1
]
}
}
Shape {
appearance Appearance {
material Material {
ambientIntensity 0.300
shininess 1.000
diffuseColor 0.479 0.485 0.485
transparency 0.000
specularColor 0.320 0.324 0.324
emissiveColor 0.000 0.000 0.000
}
}
geometry IndexedFaceSet {
ccw TRUE
normalPerVertex TRUE
convex TRUE
creaseAngle 0.500
solid FALSE
coord Coordinate {
point [
-6.78398 1.79045 14.3378 ,-6.85485 3.06934 14.3378 ,-6.76166 3.06934 14.3378 ,-6.85485 1.79045 14.3378
] }
coordIndex [
0 1 2 -1 0 3 1 -1
]
}
}
Shape {
appearance Appearance {
material Material {
ambientIntensity 0.300
shininess 1.000
diffuseColor 0.479 0.485 0.485
transparency 0.000
specularColor 0.320 0.324 0.324
emissiveColor 0.000 0.000 0.000
}
}
geometry IndexedFaceSet {
ccw TRUE
normalPerVertex TRUE
convex TRUE
creaseAngle 0.500
solid FALSE
coord Coordinate {
point [
-5.24345 7.92912 10.2965 ,-5.24345 7.67334 10.2965 ,-5.23116 7.67334 10.4213 ,-5.23116 7.92912 10.4213 ,-5.19477 7.67334 10.5413 ,-5.19477 7.92912 10.5413 ,-5.13568 7.67334 10.6518 ,-5.13568 7.92912 10.6518 ,-5.05616 7.92912 10.7487 ,-5.05616 7.67334 10.7487 ,-4.95926 7.67334 10.8282 ,-4.95926 7.92912 10.8282 ,-4.84871 7.67334 10.8873 ,-4.84871 7.92912 10.8873 ,-4.72875 7.92912 10.9237 ,-4.72875 7.67334 10.9237 ,-4.604 7.67334 10.936 ,-4.604 7.92912 10.936
] }
coordIndex [
0 1 2 -1 3 2 4 -1 3 0 2 -1 5 4 6 -1 5 3 4 -1 7 5 6 -1 8 6 9 -1 8 9 10 -1 8 7 6 -1 11 10 12 -1 11 8 10 -1 13 11 12 -1 14 12 15 -1 14 15 16 -1 14 13 12 -1 17 14 16 -1
]
}
}
Shape {
appearance Appearance {
material Material {
ambientIntensity 0.300
shininess 1.000
diffuseColor 0.479 0.485 0.485
transparency 0.000
specularColor 0.320 0.324 0.324
emissiveColor 0.000 0.000 0.000
}
}
geometry IndexedFaceSet {
ccw TRUE
normalPerVertex TRUE
convex TRUE
creaseAngle 0.500
solid FALSE
coord Coordinate {
point [
-5.24345 7.67334 10.2965 ,-5.24345 7.92912 -10.4215 ,-5.24345 7.67334 -10.4215 ,-5.24345 7.92912 10.2965
] }
coordIndex [
0 1 2 -1 3 1 0 -1
]
}
}
Shape {
appearance Appearance {
material Material {
ambientIntensity 0.300
shininess 1.000
diffuseColor 0.479 0.485 0.485
transparency 0.000
specularColor 0.320 0.324 0.324
emissiveColor 0.000 0.000 0.000
}
}
geometry IndexedFaceSet {
ccw TRUE
normalPerVertex TRUE
convex TRUE
creaseAngle 0.500
solid FALSE
coord Coordinate {
point [
-4.604 7.92912 -11.0609 ,-4.604 7.67334 -11.0609 ,-4.72875 7.67334 -11.0486 ,-4.72875 7.92912 -11.0486 ,-4.84871 7.92912 -11.0122 ,-4.84871 7.67334 -11.0122 ,-4.95926 7.67334 -10.9531 ,-4.95926 7.92912 -10.9531 ,-5.05616 7.67334 -10.8736 ,-5.05616 7.92912 -10.8736 ,-5.13568 7.67334 -10.7767 ,-5.13568 7.92912 -10.7767 ,-5.19477 7.67334 -10.6662 ,-5.19477 7.92912 -10.6662 ,-5.23116 7.92912 -10.5462 ,-5.23116 7.67334 -10.5462 ,-5.24345 7.92912 -10.4215 ,-5.24345 7.67334 -10.4215
] }
coordIndex [
0 1 2 -1 3 0 2 -1 4 2 5 -1 4 5 6 -1 4 3 2 -1 7 6 8 -1 7 4 6 -1 9 8 10 -1 9 7 8 -1 11 10 12 -1 11 9 10 -1 13 11 12 -1 14 12 15 -1 14 13 12 -1 16 15 17 -1 16 14 15 -1
]
}
}
Shape {
appearance Appearance {
material Material {
ambientIntensity 0.300
shininess 1.000
diffuseColor 0.479 0.485 0.485
transparency 0.000
specularColor 0.320 0.324 0.324
emissiveColor 0.000 0.000 0.000
}
}
geometry IndexedFaceSet {
ccw TRUE
normalPerVertex TRUE
convex TRUE
creaseAngle 0.500
solid FALSE
coord Coordinate {
point [
-4.604 7.92912 -11.0609 ,4.604 7.92912 -11.0609 ,4.604 7.67334 -11.0609 ,-4.604 7.67334 -11.0609
] }
coordIndex [
0 1 2 -1 0 2 3 -1
]
}
}
Shape {
appearance Appearance {
material Material {
ambientIntensity 0.300
shininess 1.000
diffuseColor 0.479 0.485 0.485
transparency 0.000
specularColor 0.320 0.324 0.324
emissiveColor 0.000 0.000 0.000
}
}
geometry IndexedFaceSet {
ccw TRUE
normalPerVertex TRUE
convex TRUE
creaseAngle 0.500
solid FALSE
coord Coordinate {
point [
5.24345 7.92912 -10.4215 ,5.24345 7.67334 -10.4215 ,5.23116 7.67334 -10.5462 ,5.23116 7.92912 -10.5462 ,5.19477 7.67334 -10.6662 ,5.19477 7.92912 -10.6662 ,5.13568 7.92912 -10.7767 ,5.13568 7.67334 -10.7767 ,5.05616 7.92912 -10.8736 ,5.05616 7.67334 -10.8736 ,4.95926 7.67334 -10.9531 ,4.95926 7.92912 -10.9531 ,4.84871 7.67334 -11.0122 ,4.84871 7.92912 -11.0122 ,4.72875 7.92912 -11.0486 ,4.72875 7.67334 -11.0486 ,4.604 7.67334 -11.0609 ,4.604 7.92912 -11.0609
] }
coordIndex [
0 1 2 -1 3 2 4 -1 3 0 2 -1 5 3 4 -1 6 4 7 -1 6 5 4 -1 8 7 9 -1 8 9 10 -1 8 6 7 -1 11 10 12 -1 11 8 10 -1 13 11 12 -1 14 12 15 -1 14 15 16 -1 14 13 12 -1 17 14 16 -1
]
}
}
Shape {
appearance Appearance {
material Material {
ambientIntensity 0.300
shininess 1.000
diffuseColor 0.479 0.485 0.485
transparency 0.000
specularColor 0.320 0.324 0.324
emissiveColor 0.000 0.000 0.000
}
}
geometry IndexedFaceSet {
ccw TRUE
normalPerVertex TRUE
convex TRUE
creaseAngle 0.500
solid FALSE
coord Coordinate {
point [
5.24345 7.67334 -10.4215 ,5.24345 7.92912 10.2965 ,5.24345 7.67334 10.2965 ,5.24345 7.92912 -10.4215
] }
coordIndex [
0 1 2 -1 3 1 0 -1
]
}
}
Shape {
appearance Appearance {
material Material {
ambientIntensity 0.300
shininess 1.000
diffuseColor 0.479 0.485 0.485
transparency 0.000
specularColor 0.320 0.324 0.324
emissiveColor 0.000 0.000 0.000
}
}
geometry IndexedFaceSet {
ccw TRUE
normalPerVertex TRUE
convex TRUE
creaseAngle 0.500
solid FALSE
coord Coordinate {
point [
4.604 7.92912 10.936 ,4.604 7.67334 10.936 ,4.72875 7.67334 10.9237 ,4.72875 7.92912 10.9237 ,4.84871 7.92912 10.8873 ,4.84871 7.67334 10.8873 ,4.95926 7.92912 10.8282 ,4.95926 7.67334 10.8282 ,5.05616 7.67334 10.7487 ,5.05616 7.92912 10.7487 ,5.13568 7.92912 10.6518 ,5.13568 7.67334 10.6518 ,5.19477 7.67334 10.5413 ,5.19477 7.92912 10.5413 ,5.23116 7.67334 10.4213 ,5.23116 7.92912 10.4213 ,5.24345 7.67334 10.2965 ,5.24345 7.92912 10.2965
] }
coordIndex [
0 1 2 -1 3 0 2 -1 4 2 5 -1 4 3 2 -1 6 5 7 -1 6 7 8 -1 6 4 5 -1 9 6 8 -1 10 8 11 -1 10 11 12 -1 10 9 8 -1 13 12 14 -1 13 10 12 -1 15 14 16 -1 15 13 14 -1 17 15 16 -1
]
}
}
Shape {
appearance Appearance {
material Material {
ambientIntensity 0.300
shininess 1.000
diffuseColor 0.479 0.485 0.485
transparency 0.000
specularColor 0.320 0.324 0.324
emissiveColor 0.000 0.000 0.000
}
}
geometry IndexedFaceSet {
ccw TRUE
normalPerVertex TRUE
convex TRUE
creaseAngle 0.500
solid FALSE
coord Coordinate {
point [
4.604 7.92912 10.936 ,-4.604 7.92912 10.936 ,-4.604 7.67334 10.936 ,4.604 7.67334 10.936
] }
coordIndex [
0 1 2 -1 0 2 3 -1
]
}
}
Shape {
appearance Appearance {
material Material {
ambientIntensity 0.300
shininess 1.000
diffuseColor 0.479 0.485 0.485
transparency 0.000
specularColor 0.320 0.324 0.324
emissiveColor 0.000 0.000 0.000
}
}
geometry IndexedFaceSet {
ccw TRUE
normalPerVertex TRUE
convex TRUE
creaseAngle 0.500
solid FALSE
coord Coordinate {
point [
5.19477 7.67334 10.5413 ,5.05616 7.67334 10.7487 ,5.13568 7.67334 10.6518 ,4.84871 7.67334 10.8873 ,4.95926 7.67334 10.8282 ,4.72875 7.67334 10.9237 ,5.24345 7.67334 10.2965 ,5.23116 7.67334 10.4213 ,4.604 7.67334 10.936 ,-4.604 7.67334 10.936 ,-5.05616 7.67334 10.7487 ,-4.95926 7.67334 10.8282 ,-4.84871 7.67334 10.8873 ,-4.72875 7.67334 10.9237 ,-5.23116 7.67334 10.4213 ,-5.19477 7.67334 10.5413 ,-5.13568 7.67334 10.6518 ,-5.24345 7.67334 10.2965 ,5.13568 7.67334 -10.7767 ,5.24345 7.67334 -10.4215 ,5.23116 7.67334 -10.5462 ,5.19477 7.67334 -10.6662 ,4.95926 7.67334 -10.9531 ,5.05616 7.67334 -10.8736 ,4.84871 7.67334 -11.0122 ,4.72875 7.67334 -11.0486 ,4.604 7.67334 -11.0609 ,-5.24345 7.67334 -10.4215 ,-4.604 7.67334 -11.0609 ,-5.23116 7.67334 -10.5462 ,-4.84871 7.67334 -11.0122 ,-4.72875 7.67334 -11.0486 ,-5.19477 7.67334 -10.6662 ,-4.95926 7.67334 -10.9531 ,-5.13568 7.67334 -10.7767 ,-5.05616 7.67334 -10.8736
] }
coordIndex [
0 1 2 -1 3 4 1 -1 5 3 1 -1 6 0 7 -1 6 1 0 -1 6 5 1 -1 8 5 6 -1 9 8 6 -1 10 11 12 -1 10 12 13 -1 14 15 16 -1 14 16 10 -1 14 10 13 -1 17 13 9 -1 17 9 6 -1 17 14 13 -1 18 19 20 -1 18 20 21 -1 22 18 23 -1 24 19 18 -1 24 18 22 -1 25 19 24 -1 26 19 25 -1 27 26 28 -1 27 6 19 -1 27 17 6 -1 27 19 26 -1 29 27 28 -1 30 28 31 -1 30 29 28 -1 32 29 30 -1 33 32 30 -1 34 32 33 -1 35 34 33 -1
]
}
}
]
}
